<svg version="1.2" xmlns="http://www.w3.org/2000/svg" viewBox="0 0 1004 204" width="1004" height="204">
	<style>
		tspan { white-space:pre } 
		.s0 { fill: #f9a51a } 
		.s1 { fill: #acd6f2 } 
		.s2 { fill: #305073 } 
		.s3 { fill: #6d6e70 } 
		.s4 { fill: #929497 } 
		.s5 { fill: #bbbdbf } 
		.s6 { fill: #395e8b } 
		.s7 { fill: #dbdcdd } 
		.s8 { fill: #ffffff } 
		.s9 { fill: #5da8dc } 
		.s10 { fill: #b1b3b5 } 
		.s11 { fill: #a6a8ab } 
	</style>
	<g id="Layer 1">
		<g id="&lt;Group&gt;">
			<g id="&lt;Group&gt;">
				<path id="&lt;Path&gt;" class="s0" d="m99.63 81.42c0 0-10.47 0.33-10.47 7.1 0 6.75 10.14 7.49 10.47 7.49 0.33 0 10.48-0.74 10.48-7.49 0-6.77-10.48-7.1-10.48-7.1z"/>
				<path id="&lt;Path&gt;" class="s1" d="m94.69 127.67c1.35 1.85 1.98 4.08 1.82 6.38-0.19 2.64-1.4 5.07-3.43 6.83-1.19 1.02-2.52 1.78-3.93 2.27q0.3 1 0.51 2.12c1.84 9.89-2.02 10.69-2.67 11.17-0.68 0.49-1.14 0.51-0.89 1.14 0.09 0.24 0.17 0.59 0.21 0.9q2.21-0.3 4.39-0.98c5.77-2.41 9.09-4.75 10.88-6.33q1-0.96 1.88-2.04c-3.02-7.09-2.46-8.12-3.21-14.01-0.35-2.79-2.87-5.41-5.56-7.45z"/>
				<path id="&lt;Path&gt;" class="s1" d="m95.19 133.96c0.15-2.29-0.6-4.48-2.12-6.21-2.47-2.81-6.79-3.1-9.64-0.66-1.09 0.94-1.72 2.22-1.83 3.63q-0.07 1.09 0.3 2.11c1.52 2.06 4.09 1.99 4.92 1.84 1.08-0.22 3.85-1.07 3.36-3.61-0.66-3.32-3-2.76-3.82-2.6-0.84 0.17-1.44 0.95-1.34 1.99 0.11 1.03 1.89 0.82 1.75 0.11-0.16-0.82 1.16-1.03 1.1-0.01-0.1 2.29-3.56 2.43-4.08-0.2-0.42-2.11 1.9-3.78 3.03-4 1.11-0.23 4.52 0.07 5.16 3.44 0.68 3.36-1.83 5.59-3.99 6.17-2.17 0.58-1.84 1.01-1.84 1.01 0 0 1.47 1.89 2.58 4.92 1.24-0.45 2.44-1.12 3.48-2.03 1.76-1.51 2.81-3.61 2.98-5.9z"/>
				<path id="&lt;Path&gt;" class="s2" d="m70.45 158.02q0.02 0 0.02 0c-0.05-0.12-0.24 0.01-0.02 0z"/>
				<path id="&lt;Path&gt;" class="s3" d="m71.74 158.14c-0.59 0.05-0.94-0.14-1.27-0.12 0.03 0.08-0.05 0.35-0.53 0.96-1.1 1.38-0.44 1.97-0.44 1.97 5.37 0.73 10.4-0.18 13.13-0.86-3.7 0.03-7.39-0.62-10.89-1.95z"/>
				<path id="&lt;Path&gt;" class="s3" d="m61.12 151.58c-4.96 2.91-7.97 1.77-7.97 1.77-0.03 0.62-0.72 0.75-1.56 1.62-0.84 0.89-0.75 1.12-0.75 1.12 7.2 3.77 16.64 4.39 16.64 4.39l0.31-0.77c-0.9-0.47-0.08-1.61 1.1-2.83-2.71-1.39-5.24-3.21-7.47-5.47q-0.16 0.09-0.3 0.17z"/>
				<path id="&lt;Path&gt;" class="s3" d="m49.18 136.94c-6.58 3.01-8.21 4.24-9.84 4.46-1.63 0.23-1.46-0.17-1.97 0.1-0.5 0.24-2.18-0.24 2.58 5.58 4.74 5.8 6.71 6.33 7.37 6.82 0.65 0.48 1.39-0.99 1.76-1.57 0.41-0.59 0.26-0.31-0.7-1.33-0.97-1.03 0.48-2.44 0.48-2.44 1.44-1.98 3.82-3.78 6.56-5.41-1.28-2.43-2.27-5.01-2.96-7.66q-1.59 0.66-3.28 1.45z"/>
				<path id="&lt;Path&gt;" class="s4" d="m51.43 124.42c-7.47 0.63-16.43 3.82-17.88 4.52-1.72 0.85-2.85 0.98-2.54 2.59 0.75 3.81 4.46 8.75 4.46 8.75l2.51-0.89c-0.02-1.92 0.61-1.79 5.25-4.49 2.28-1.31 5.4-2.62 8.41-3.74q-0.42-3.33-0.21-6.74z"/>
				<path id="&lt;Path&gt;" class="s4" d="m28.56 117.3c-0.28 4.52 1.17 10.27 1.17 10.27l1.99-0.44c-0.55-2.49 1.99-3.24 5.34-4.09 2.58-0.67 8.61-1.49 14.73-1.94q0.56-3.51 1.74-6.78c-12.13-0.62-24.97 2.98-24.97 2.98z"/>
				<path id="&lt;Path&gt;" class="s5" d="m66.57 97.29c-1.39-1.33-2.82-2.67-4.13-3.85-5.18-4.61-23.45-7.06-23.45-7.06-2.97 0.99-5.37 8.36-5.37 8.36l2.75 0.82 0.8-1.31c2.8-3.09 16 2.18 19.77 3.82 1.54 0.67 3.45 1.8 5.22 2.95q0.82-0.81 1.72-1.59 1.32-1.12 2.69-2.14z"/>
				<path id="&lt;Path&gt;" class="s5" d="m31.06 101.33c-1.91 0.87-2.76 12.01-2.76 12.01l2.17-0.03c0 0-0.09-0.48 0.64-1.44 0.72-0.96 7.13-3.42 21.32-2.97q1.76 0.06 3.45 0.31 1.34-2.41 3.03-4.59c-14.19-4.79-27.85-3.29-27.85-3.29z"/>
				<path id="&lt;Path&gt;" class="s6" d="m74.31 104.99q0.03 0 0.04 0.01-0.01-0.01-0.04-0.01z"/>
				<path id="&lt;Path&gt;" class="s7" d="m70.27 76.28c-4.72-4.4-13.67-7.37-13.67-7.37-8.32 4.18-12.12 10.61-12.12 10.61 3.04-0.49 12.46 3.29 12.46 3.29 0 0 0.06-0.27 0.82-1.03 0.76-0.76 1.99 0.06 1.99 0.06 6.09 3.88 9.97 8.25 12.38 11.94q4.12-2.19 8.51-3.49c-3.58-5.46-7.91-11.72-10.37-14.01z"/>
				<path id="&lt;Path&gt;" class="s8" d="m101.58 151.17c1.4-1.24 1.88-2.02 1.88-2.02q0-0.01 0-0.02-0.88 1.08-1.88 2.04z"/>
				<path id="&lt;Path&gt;" class="s9" d="m85.28 142.55c-0.04-1.63-0.04-3.02-0.17-3.7-0.27-1.31-1.29-0.85-1.29-0.85 0 0 0.17 1.86-0.33 4.46q0.87 0.12 1.79 0.09z"/>
				<path id="&lt;Path&gt;" class="s9" d="m84.84 154.38c0.73-2.57 1.47-3.48 0.86-6.81-0.22-1.19-0.32-2.48-0.38-3.7q-1.08 0.03-2.15-0.12c-0.36 1.35-0.93 2.83-1.78 4.31-3.64 6.2-6.07 8.51-7.57 9.41 3.45 1.08 7.08 1.49 10.69 1.23-0.59-1.77-0.29-2.05 0.33-4.32z"/>
				<path id="&lt;Path&gt;" class="s9" d="m71.85 154.04c1.69-1.75 4.66-5.95 5.48-8.28 0.39-1.09 0.81-2.36 1.24-3.62-1.08-0.64-2.08-1.45-2.93-2.43q-0.07-0.07-0.11-0.12c-4.41 4.94-9.14 8.67-12.96 11.09 2.2 2.18 4.68 3.92 7.33 5.23 0.72-0.69 1.44-1.34 1.95-1.87z"/>
				<path id="&lt;Path&gt;" class="s9" d="m79 140.85c0.89-2.69 1.64-5.02 1.64-5.02l-1.68-0.43q-1.25 1.64-2.55 3.17 0.11 0.13 0.21 0.25 1.07 1.21 2.38 2.03z"/>
				<path id="&lt;Path&gt;" class="s9" d="m72.87 135.12q-0.4-1-0.64-2.03-2.22-0.13-5.44-0.43c-4.47-0.42-8.52 0.52-13.09 2.33q0.98 3.89 2.87 7.5c3.36-1.89 7.09-3.56 10.2-5.06 2.27-1.08 4.35-1.82 6.1-2.31z"/>
				<path id="&lt;Path&gt;" class="s9" d="m77.67 134.13l-0.81-0.86q-0.57 0.02-3.24-0.1 0.22 0.82 0.52 1.6c2.19-0.54 3.53-0.64 3.53-0.64z"/>
				<path id="&lt;Path&gt;" class="s9" d="m71.9 128.7q0.06-0.69 0.17-1.36c-3.19-0.81-10.86-2.61-16.91-3q-1.16-0.08-2.41 0-0.2 3.21 0.17 6.36c2.65-0.94 5.08-1.7 6.62-2.14 2.55-0.73 9.03-0.2 12.36 0.14z"/>
				<path id="&lt;Path&gt;" class="s9" d="m72.96 124.17q0.51-1.31 1.29-2.49c-1.51-1.03-7.85-5.19-14.1-6.53q-2.55-0.55-5.24-0.75-1.2 3.2-1.76 6.61 1.91-0.14 3.75-0.2c5.87-0.2 13.11 2.25 16.06 3.36z"/>
				<path id="&lt;Path&gt;" class="s9" d="m77.14 118.35q0.55-0.48 1.14-0.92c0.04-0.47 0.01-0.83 0.01-0.83-1.9-1.44-2.97-5.86-2.97-5.86-2.17-0.18-2.84-2.53-2.08-4.4 0.62-1.59 0.98-1.45 1.07-1.35-0.3-0.33-3.31-3.42-6.77-6.76q-1.43 1.04-2.8 2.21-0.75 0.65-1.46 1.33c2.09 1.41 3.74 2.66 3.94 2.85 0.37 0.39 0.55 1.01 0.72 1.39 0.17 0.36-1.11 1.99-1.11 1.99q-3.27-1.71-6.58-2.9-1.66 2.06-2.99 4.34c9.53 1.78 16.86 7.39 19.3 9.45 0.19-0.18 0.36-0.37 0.58-0.54z"/>
				<path id="&lt;Path&gt;" class="s9" d="m75.61 101.61c0.37 2.46 0.88 2.21 1.61 2.32 0.74 0.11 2.44 0.22 3 2.3 0.56 2.07-2.3 3.55-2.3 3.55l2.27 6.42q1.53-0.86 3.16-1.43c-0.05-13.41 3.24-15.12 3.24-15.12 0 0-2.24-3.69-5.19-8.2-2.94 0.85-5.83 2-8.57 3.46 1.83 3.11 2.61 5.61 2.78 6.7z"/>
				<path id="&lt;Path&gt;" class="s9" d="m81.26 119.22c0.34-0.02 2.16-1.33 2.16-1.33q-0.03-0.9-0.05-1.71-1.41 0.53-2.74 1.3z"/>
				<path id="&lt;Path&gt;" class="s9" d="m83.37 116.18q-0.02-0.72-0.02-1.41-1.63 0.57-3.16 1.43l0.44 1.28q1.33-0.77 2.74-1.3z"/>
				<path id="&lt;Path&gt;" class="s10" d="m111.37 69.49c-0.11-0.13-0.27-0.57-0.4-1.73-0.13-1.15 0.31-2.98-0.29-6.34-0.61-3.36-2.65-4.64-2.91-4.75-0.26-0.11-0.43 0.17 0.16 1.42 0.58 1.24 1.38 4.25 1.27 6.12-0.12 1.86-1.25 3.08-3.08 4.49-1.82 1.4-6.49 1.66-6.49 1.66 0 0-4.68-0.26-6.51-1.66-1.82-1.41-2.94-2.63-3.07-4.49-0.09-1.87 0.71-4.88 1.29-6.12 0.58-1.25 0.41-1.53 0.15-1.42-0.27 0.11-2.31 1.39-2.91 4.75-0.6 3.36-0.15 5.19-0.29 6.34-0.14 1.16-0.29 1.6-0.4 1.73-0.12 0.14-0.14 0.18 0.3 0.3 0.46 0.1 3.33 1.35 5.63 2.26 2.31 0.92 4.68 1.43 5.81 1.43 1.14 0 3.5-0.51 5.81-1.43 2.3-0.91 5.18-2.16 5.62-2.26 0.45-0.12 0.42-0.16 0.31-0.3z"/>
				<path id="&lt;Path&gt;" class="s10" d="m109.37 100.11c-0.97 0-2.16-0.33-4.09-0.87-1.93-0.53-5.65-0.37-5.65-0.37 0 0-3.71-0.16-5.64 0.37-1.94 0.54-3.13 0.87-4.1 0.87-0.97 0-0.96 0.03-0.96 0.03 0 0 0.07 0.48 0.09 0.58 0.03 0.08 0.73 0.03 1.47 0.52 0.73 0.48 4.58 1.36 9.14 1.36 4.55 0 8.4-0.88 9.14-1.36 0.73-0.49 1.44-0.44 1.48-0.52 0.01-0.1 0.08-0.58 0.08-0.58 0 0 0.02-0.03-0.96-0.03z"/>
				<path id="&lt;Path&gt;" class="s10" d="m111.78 113.19c-0.46-2.38-0.3-4.94-0.3-5.25 0-0.32-0.2-0.23-0.2-0.23-3.43-0.53-3.95-1.04-6.8-1.86-2.86-0.82-4.85-0.62-4.85-0.62 0 0-2-0.2-4.85 0.62-2.85 0.82-3.38 1.33-6.8 1.86 0 0-0.21-0.09-0.21 0.23 0 0.31 0.15 2.87-0.28 5.25-0.45 2.38-0.49 6.08 0.07 8.06 0 0 0.04 0.19 0.36 0.1 0.35-0.09 0.42-0.29 0.66-0.87 0.24-0.58 0.19-0.89 0.15-2.02-0.03-1.14-0.03-4.67 2.35-6.63 2.41-1.96 4.66-3.51 8.55-3.51 3.9 0 6.14 1.55 8.54 3.51 2.39 1.96 2.39 5.49 2.36 6.63-0.05 1.13-0.09 1.44 0.15 2.02 0.26 0.58 0.31 0.78 0.64 0.87 0.35 0.09 0.38-0.1 0.38-0.1 0.56-1.98 0.52-5.68 0.08-8.06z"/>
				<path id="&lt;Path&gt;" class="s10" d="m99.63 111.65c-1.62 0-6.4 1.13-6.16 6.92 0.14 4.03 5.43 5.79 5.68 5.88 0.28 0.08 0.28 0.14 0.48 0.14 0.19 0 0.2-0.06 0.46-0.14 0.27-0.09 5.55-1.85 5.7-5.88 0.23-5.79-4.53-6.92-6.16-6.92z"/>
				<path id="&lt;Path&gt;" class="s10" d="m109.37 76.6c-1.08 0-2.46 0.31-4.61-0.39-2.13-0.69-5.13-0.6-5.13-0.6 0 0-3-0.09-5.13 0.6-2.14 0.7-3.52 0.39-4.61 0.39-1.09 0-1.27 0.08-1.27 0.35 0 0.27 0.33 0.71 0.59 0.87 0 0 1.83-0.13 2.76 0.21 0.91 0.37 3.27 1.3 7.66 1.3 4.38 0 6.76-0.93 7.67-1.3 0.91-0.34 2.76-0.21 2.76-0.21 0.24-0.16 0.58-0.6 0.58-0.87 0-0.27-0.18-0.35-1.27-0.35z"/>
				<path id="&lt;Path&gt;" class="s10" d="m107 41.24c0 0-2.21 1.97-3.06 2.08-0.81 0.1-1.99 0.05-3.04-0.73 0 0-0.19-0.29-0.46 0-0.24 0.24-0.66 0.95-0.82 1.23-0.03-0.21 0.05-0.54 0.01-0.69-0.25-1.35 0.16-2.8 0.25-3.19 0.06-0.4 0.3-0.62 0.21-0.82-0.17-0.45-0.6-1.56-0.6-1.56 0 0 0.03-0.15-0.43 0.39-0.43 0.55-0.83 1.25-1.06 1.42-0.22 0.14-0.4 0.33-0.09 0.64 0.31 0.32 0.43 0.85 0.45 1.11 0.04 0.26 0.16 1.58 0.05 2.16q-0.04 0.25 0.02 0.63 0 0.03 0 0.04 0 0.05 0.02 0.09 0.02 0.16 0.11 0.3c-0.11 0.06-0.2 0.09-0.2 0.09 0 0-0.29 0.04-0.71 0.44-0.21 0.21-0.53 0.49-0.53 0.49v0.03c0 0-0.4 0.73-0.49 0.93q-0.08 0.15-0.16 0.32c-0.98 2.12-3.82 4.04-4.2 4.33-0.38 0.3-0.1 0.44-0.02 0.51 0.1 0.05 0.1 0.55 0.1 0.55l0.24 0.01c0 0 0.07-0.16 0.36-0.42 0.28-0.28 2.18-1.19 3.26-1.41 0.88-0.18 2-0.15 2.46-0.18q-0.04 0.09-0.03 0.18 0 0.06 0 0.14l-0.01 1.27c0 0.93 0 2.44-0.06 2.61l-0.04 0.17c-0.08 0.73-0.49 1.51-2.45 3.21-1.95 1.69-2.64 3.11-2.64 5.84-0.01 2.73 4.15 5.25 5.69 5.37l0.12 0.02c1.54-0.13 5.7-2.61 5.7-5.34 0-2.75-0.69-4.17-2.62-5.86-1.94-1.71-2.27-2.74-2.36-3.46-0.09-0.73-0.11-3.54-0.11-3.77-0.02-0.13-0.04-0.32-0.05-0.46q0.08-0.05 0.15-0.16c0 0 0.52 0.3 0.92 0.24 0.4-0.07 0.47-0.39 0.56-0.42 0.07 0 0.39 0.2 0.73 0.26 0.33 0.04 0.39-0.03 0.49-0.23q0.03-0.07 0.07-0.13c0.14-0.29 0.16-0.53 0.16-0.53 1.1 0.46 0.93-0.64 0.93-0.64 0.31 0 0.68 0.02 0.75-0.23 0.08-0.29 0.02-1 0.14-1.05 0.1-0.06 0.78-0.75 0.55-1.46-0.23-0.7-0.25-0.99 0.38-1.72 0.66-0.72 1.18-0.82 1.08-1.41-0.08-0.58 0.07-0.59 0.2-0.72 0.14-0.13 0.08-0.51 0.08-0.51z"/>
				<g id="&lt;Group&gt;">
					<path id="&lt;Path&gt;" class="s11" d="m124.34 153.39c0 0-11.86-1.1-11.1-3.66 0.76-2.56 11.1 3.66 11.1 3.66z"/>
					<path id="&lt;Path&gt;" class="s11" d="m124.34 148.31c0 0-11.54-1.01-10.78-3.56 0.76-2.56 10.78 3.56 10.78 3.56z"/>
					<path id="&lt;Path&gt;" class="s11" d="m124.34 143.55c0 0-11.27-0.93-10.51-3.5 0.77-2.55 10.51 3.5 10.51 3.5z"/>
					<path id="&lt;Path&gt;" class="s11" d="m124.34 138.33c0 0-10.92-0.85-10.17-3.41 0.77-2.55 10.17 3.41 10.17 3.41z"/>
					<path id="&lt;Path&gt;" class="s11" d="m124.34 133.25c0 0-10.55-0.73-9.79-3.28 0.75-2.57 9.79 3.28 9.79 3.28z"/>
					<path id="&lt;Path&gt;" class="s11" d="m124.34 128.17c0 0-10.22-0.63-9.46-3.19 0.76-2.55 9.46 3.19 9.46 3.19z"/>
					<path id="&lt;Path&gt;" class="s11" d="m124.34 123.08c0 0-9.9-0.52-9.15-3.08 0.77-2.57 9.15 3.08 9.15 3.08z"/>
					<path id="&lt;Path&gt;" class="s11" d="m124.34 118.24c0 0-9.56-0.43-8.8-2.99 0.75-2.55 8.8 2.99 8.8 2.99z"/>
					<path id="&lt;Path&gt;" class="s11" d="m124.34 113.17c0 0-9.21-0.34-8.45-2.89 0.76-2.56 8.45 2.89 8.45 2.89z"/>
					<path id="&lt;Path&gt;" class="s11" d="m124.34 108.1c0 0-8.91-0.24-8.15-2.8 0.76-2.56 8.15 2.8 8.15 2.8z"/>
					<path id="&lt;Path&gt;" class="s11" d="m124.54 102.99c0 0-8.74-0.21-7.97-2.76 0.75-2.56 7.97 2.76 7.97 2.76z"/>
					<path id="&lt;Path&gt;" class="s11" d="m124.54 97.9c0 0-8.38-0.09-7.63-2.64 0.76-2.56 7.63 2.64 7.63 2.64z"/>
					<path id="&lt;Path&gt;" class="s11" d="m124.53 92.85c0 0-8.06-0.06-7.33-2.55 0.74-2.48 7.33 2.55 7.33 2.55z"/>
					<path id="&lt;Path&gt;" class="s11" d="m124.8 87.9c0 0-7.95-0.05-7.21-2.51 0.73-2.48 7.21 2.51 7.21 2.51z"/>
					<path id="&lt;Path&gt;" class="s11" d="m124.7 82.89c0 0-7.43-0.11-6.76-2.35 0.66-2.22 6.76 2.35 6.76 2.35z"/>
					<path id="&lt;Path&gt;" class="s11" d="m124.7 77.89c0 0-7.16-0.03-6.5-2.26 0.67-2.25 6.5 2.26 6.5 2.26z"/>
					<path id="&lt;Path&gt;" class="s11" d="m124.69 72.85c0 0-6.79-0.03-6.16-2.15 0.63-2.11 6.16 2.15 6.16 2.15z"/>
					<path id="&lt;Path&gt;" class="s11" d="m125.01 67.68c0 0-6.81 0-6.18-2.16 0.66-2.15 6.18 2.16 6.18 2.16z"/>
					<path id="&lt;Path&gt;" class="s11" d="m124.99 62.57c0 0-6.45 0-5.84-2.05 0.62-2.04 5.84 2.05 5.84 2.05z"/>
					<path id="&lt;Path&gt;" class="s11" d="m125.16 57.78c0 0-6.26 0.13-5.62-2 0.61-2.13 5.62 2 5.62 2z"/>
					<path id="&lt;Path&gt;" class="s11" d="m125.15 52.6c0 0-5.86 0.07-5.29-1.86 0.58-1.93 5.29 1.86 5.29 1.86z"/>
					<path id="&lt;Path&gt;" class="s11" d="m125.15 47.53c0 0-5.52 0.17-4.95-1.77 0.58-1.92 4.95 1.77 4.95 1.77z"/>
					<path id="&lt;Path&gt;" class="s11" d="m125.13 42.56c0 0-5.17 0.17-4.62-1.65 0.53-1.8 4.62 1.65 4.62 1.65z"/>
					<path id="&lt;Path&gt;" class="s11" d="m125.12 37.61c0 0-4.85 0.13-4.34-1.54 0.48-1.68 4.34 1.54 4.34 1.54z"/>
					<path id="&lt;Path&gt;" class="s11" d="m125.91 153.39c0 0 11.85-1.1 11.1-3.66-0.77-2.56-11.1 3.66-11.1 3.66z"/>
					<path id="&lt;Path&gt;" class="s11" d="m125.91 148.31c0 0 11.53-1.01 10.78-3.56-0.77-2.56-10.78 3.56-10.78 3.56z"/>
					<path id="&lt;Path&gt;" class="s11" d="m125.91 143.55c0 0 11.26-0.93 10.49-3.5-0.75-2.55-10.49 3.5-10.49 3.5z"/>
					<path id="&lt;Path&gt;" class="s11" d="m125.91 138.33c0 0 10.91-0.85 10.15-3.41-0.77-2.55-10.15 3.41-10.15 3.41z"/>
					<path id="&lt;Path&gt;" class="s11" d="m125.91 133.25c0 0 10.54-0.73 9.78-3.28-0.76-2.57-9.78 3.28-9.78 3.28z"/>
					<path id="&lt;Path&gt;" class="s11" d="m125.91 128.17c0 0 10.21-0.63 9.45-3.19-0.76-2.55-9.45 3.19-9.45 3.19z"/>
					<path id="&lt;Path&gt;" class="s11" d="m125.91 123.08c0 0 9.89-0.52 9.12-3.08-0.75-2.57-9.12 3.08-9.12 3.08z"/>
					<path id="&lt;Path&gt;" class="s11" d="m125.91 118.24c0 0 9.55-0.43 8.79-2.99-0.77-2.55-8.79 2.99-8.79 2.99z"/>
					<path id="&lt;Path&gt;" class="s11" d="m125.91 113.17c0 0 9.2-0.34 8.44-2.89-0.76-2.56-8.44 2.89-8.44 2.89z"/>
					<path id="&lt;Path&gt;" class="s11" d="m125.91 108.1c0 0 8.89-0.24 8.13-2.8-0.77-2.56-8.13 2.8-8.13 2.8z"/>
					<path id="&lt;Path&gt;" class="s11" d="m125.7 102.99c0 0 8.74-0.21 7.98-2.76-0.76-2.56-7.98 2.76-7.98 2.76z"/>
					<path id="&lt;Path&gt;" class="s11" d="m125.7 97.9c0 0 8.39-0.09 7.63-2.64-0.76-2.56-7.63 2.64-7.63 2.64z"/>
					<path id="&lt;Path&gt;" class="s11" d="m125.71 92.85c0 0 8.08-0.06 7.32-2.55-0.73-2.48-7.32 2.55-7.32 2.55z"/>
					<path id="&lt;Path&gt;" class="s11" d="m125.44 87.9c0 0 7.93-0.05 7.22-2.51-0.74-2.48-7.22 2.51-7.22 2.51z"/>
					<path id="&lt;Path&gt;" class="s11" d="m125.53 82.89c0 0 7.44-0.11 6.78-2.35-0.67-2.22-6.78 2.35-6.78 2.35z"/>
					<path id="&lt;Path&gt;" class="s11" d="m125.53 77.89c0 0 7.17-0.03 6.51-2.26-0.66-2.25-6.51 2.26-6.51 2.26z"/>
					<path id="&lt;Path&gt;" class="s11" d="m125.54 72.85c0 0 6.79-0.03 6.17-2.15-0.63-2.11-6.17 2.15-6.17 2.15z"/>
					<path id="&lt;Path&gt;" class="s11" d="m125.23 67.68c0 0 6.82 0 6.18-2.16-0.65-2.15-6.18 2.16-6.18 2.16z"/>
					<path id="&lt;Path&gt;" class="s11" d="m125.24 62.57c0 0 6.45 0 5.84-2.05-0.61-2.04-5.84 2.05-5.84 2.05z"/>
					<path id="&lt;Path&gt;" class="s11" d="m125.08 57.78c0 0 6.26 0.13 5.62-2-0.61-2.13-5.62 2-5.62 2z"/>
					<path id="&lt;Path&gt;" class="s11" d="m125.09 52.6c0 0 5.86 0.07 5.28-1.86-0.57-1.93-5.28 1.86-5.28 1.86z"/>
					<path id="&lt;Path&gt;" class="s11" d="m125.09 47.53c0 0 5.51 0.17 4.94-1.77-0.56-1.92-4.94 1.77-4.94 1.77z"/>
					<path id="&lt;Path&gt;" class="s11" d="m125.11 42.56c0 0 5.16 0.17 4.62-1.65-0.53-1.8-4.62 1.65-4.62 1.65z"/>
					<path id="&lt;Path&gt;" class="s11" d="m125.12 37.61c0 0 4.83 0.13 4.35-1.54-0.5-1.68-4.35 1.54-4.35 1.54z"/>
					<path id="&lt;Path&gt;" class="s11" d="m123.87 164.61l2.43 0.41-1.19-140.4z"/>
				</g>
				<g id="&lt;Group&gt;">
					<path id="&lt;Path&gt;" class="s11" d="m88.92 168.32c-5.3 1.51-10.78 3.07-21.56 3.07-10.8 0-16.29-1.56-21.6-3.07-5.43-1.55-11.04-3.15-22.09-3.15v1.79c10.8 0 16.28 1.56 21.6 3.08 5.43 1.55 11.04 3.15 22.09 3.15 11.03 0 16.63-1.6 22.06-3.15 5.3-1.52 10.78-3.08 21.55-3.08 10.67 0 15.86 1.5 21.35 3.08 5.36 1.55 10.91 3.15 21.85 3.15v-1.8c-10.68 0-15.87-1.49-21.36-3.07-5.37-1.55-10.91-3.15-21.84-3.15-11.03 0-16.62 1.6-22.05 3.15z"/>
				</g>
			</g>
			<g id="&lt;Group&gt;">
				<g id="&lt;Group&gt;">
					<path id="&lt;Compound Path&gt;" class="s3" d="m156.53 132.43h1.44v21.18h10.16v1.32h-11.6z"/>
					<path id="&lt;Compound Path&gt;" fill-rule="evenodd" class="s3" d="m180.05 153.8q-2.47 1.51-5.17 1.51-5.59 0-5.59-4.69v-6.59q0-2.6 1.62-4.05 1.62-1.44 4.29-1.44 2.67 0 4.16 1.43 1.49 1.43 1.49 3.96v3.86l-10.12 0.55v2.31q0 1.83 1.19 2.62 1.19 0.79 2.7 0.79 2.31 0 4.85-1.38zm-9.32-9.77v2.89l8.68-0.45v-2.7q0-2.15-1.32-3.07-1.32-0.92-3.07-0.91-1.75-0.01-3.02 1.02-1.27 1.03-1.27 3.22z"/>
					<path id="&lt;Compound Path&gt;" class="s3" d="m193 138.83h1.45l-0.07 1.28q1.58-1.57 4.25-1.57 1.09 0 2.41 0.29l-0.39 1.34q-0.99-0.35-2.01-0.35-1.01 0-2.04 0.32-2.15 0.61-2.15 2.12v12.67h-1.45z"/>
					<path id="&lt;Compound Path&gt;" fill-rule="evenodd" class="s3" d="m213.51 153.8q-2.48 1.51-5.18 1.51-5.59 0-5.59-4.69v-6.59q0-2.6 1.62-4.05 1.63-1.44 4.29-1.44 2.67 0 4.17 1.43 1.49 1.43 1.49 3.96v3.86l-10.12 0.55v2.31q0 1.83 1.19 2.62 1.19 0.79 2.7 0.79 2.31 0 4.85-1.38zm-9.32-9.77v2.89l8.68-0.45v-2.7q0-2.15-1.32-3.07-1.32-0.92-3.07-0.91-1.75-0.01-3.02 1.02-1.27 1.03-1.27 3.22zm3.76-6.4l1.67-3.89q0.29-0.64 0.84-0.64 0.77 0 0.96 0.61 0.03 0.16 0.03 0.35 0 0.2-0.16 0.42l-2.18 3.15z"/>
					<path id="&lt;Compound Path&gt;" class="s3" d="m223.82 132.2l-0.22 1.26q-0.42-0.07-0.81-0.07-1.41 0-2.41 0.87-0.99 0.87-0.99 3.02v1.55h4.02l-0.62 1.38h-3.4v14.72h-1.45v-17.65q0-1.6 0.55-2.76 0.54-1.16 1.38-1.64 1.38-0.8 2.83-0.8 0.58 0 1.12 0.12z"/>
					<path id="&lt;Compound Path&gt;" fill-rule="evenodd" class="s3" d="m236.9 153.8q-2.47 1.51-5.17 1.51-5.59 0-5.59-4.69v-6.59q0-2.6 1.62-4.05 1.62-1.44 4.29-1.44 2.67 0 4.16 1.43 1.5 1.43 1.5 3.96v3.86l-10.13 0.55v2.31q0 1.83 1.19 2.62 1.19 0.79 2.7 0.79 2.32 0 4.86-1.38zm-9.33-9.77v2.89l8.68-0.45v-2.7q0-2.15-1.32-3.07-1.31-0.92-3.07-0.91-1.75-0.01-3.02 1.02-1.27 1.03-1.27 3.22zm3.76-6.4l1.68-3.89q0.29-0.64 0.83-0.64 0.77 0 0.97 0.61 0.03 0.16 0.03 0.35 0 0.2-0.16 0.42l-2.19 3.15z"/>
					<path id="&lt;Compound Path&gt;" class="s3" d="m240.79 138.83h1.45l-0.07 1.28q1.58-1.57 4.25-1.57 1.09 0 2.41 0.29l-0.39 1.34q-0.99-0.35-2.01-0.35-1.01 0-2.04 0.32-2.15 0.61-2.15 2.12v12.67h-1.45z"/>
					<path id="&lt;Compound Path&gt;" fill-rule="evenodd" class="s3" d="m259.92 153.8q-2.48 1.51-5.18 1.51-5.59 0-5.59-4.69v-6.59q0-2.6 1.62-4.05 1.62-1.44 4.29-1.44 2.67 0 4.16 1.43 1.5 1.43 1.5 3.96v3.86l-10.13 0.55v2.31q0 1.83 1.19 2.62 1.19 0.79 2.7 0.79 2.32 0 4.86-1.38zm-9.32-9.77v2.89l8.67-0.45v-2.7q0-2.15-1.32-3.07-1.31-0.92-3.06-0.91-1.76-0.01-3.02 1.02-1.27 1.03-1.27 3.22z"/>
					<path id="&lt;Compound Path&gt;" class="s3" d="m270.01 139.89q-2.51 0-4.54 1.09v13.95h-1.44v-16.1h1.44v0.86q1.81-1.12 4.6-1.12 1.83 0 3.09 0.61 2.73 1.25 2.73 4.63v11.12h-1.42v-11.06q0-1.73-0.98-2.75-0.98-1.01-2.39-1.17-0.55-0.06-1.09-0.06z"/>
					<path id="&lt;Compound Path&gt;" class="s3" d="m279.46 132.43h1.44v6.4h4.21l-0.64 1.38h-3.57v10.47q0 2.74 2.38 3.51l-0.42 1.15q-1.8-0.51-2.6-1.63-0.81-1.13-0.8-3.03z"/>
					<path id="&lt;Compound Path&gt;" class="s3" d="m288.63 133.6q-0.27-0.27-0.27-0.62 0-0.36 0.27-0.61 0.27-0.26 0.63-0.26 0.35 0 0.61 0.26 0.25 0.25 0.26 0.61-0.01 0.35-0.26 0.62-0.26 0.28-0.61 0.28-0.36 0-0.63-0.28zm-0.11 5.23h1.44v16.1h-1.44z"/>
					<path id="&lt;Compound Path&gt;" fill-rule="evenodd" class="s3" d="m304.59 153.8q-2.48 1.51-5.18 1.51-5.59 0-5.59-4.69v-6.59q0-2.6 1.62-4.05 1.63-1.44 4.29-1.44 2.67 0 4.17 1.43 1.49 1.43 1.49 3.96v3.86l-10.12 0.55v2.31q0 1.83 1.19 2.62 1.18 0.79 2.7 0.79 2.31 0 4.85-1.38zm-9.32-9.77v2.89l8.67-0.45v-2.7q0-2.15-1.31-3.07-1.32-0.92-3.07-0.91-1.75-0.01-3.02 1.02-1.27 1.03-1.27 3.22z"/>
					<path id="&lt;Compound Path&gt;" class="s3" d="m309.15 132.43h1.45v22.5h-1.45z"/>
					<path id="&lt;Compound Path&gt;" fill-rule="evenodd" class="s3" d="m330.3 138.57q2.76 0 4.5 1.09v-7.23h1.44v22.5q-2.76 0.38-5.11 0.38-2.34 0-4.24-0.96-2.51-1.29-2.51-4.47v-6.07q0-3.38 2.74-4.63 1.34-0.61 3.18-0.61zm4.5 2.38q-1.96-1.06-4.6-1.06-0.48 0-0.96 0.03-1.45 0.13-2.45 1.16-0.99 1.02-0.99 2.82v6.01q0 1.96 1.38 2.99 1.41 1.06 3.44 1.06 2.02 0 4.18-0.32z"/>
					<path id="&lt;Compound Path&gt;" fill-rule="evenodd" class="s3" d="m349.45 153.8q-2.47 1.51-5.17 1.51-5.6 0-5.6-4.69v-6.59q0-2.6 1.63-4.05 1.62-1.44 4.29-1.44 2.67 0 4.16 1.43 1.49 1.43 1.49 3.96v3.86l-10.12 0.55v2.31q0 1.83 1.19 2.62 1.19 0.79 2.7 0.79 2.31 0 4.85-1.38zm-9.32-9.77v2.89l8.68-0.45v-2.7q0-2.15-1.32-3.07-1.32-0.92-3.07-0.91-1.75-0.01-3.02 1.02-1.27 1.03-1.27 3.22z"/>
					<path id="&lt;Compound Path&gt;" class="s3" d="m362.95 132.43h1.45v22.5h-1.45z"/>
					<path id="&lt;Compound Path&gt;" fill-rule="evenodd" class="s3" d="m368.48 149.01v-4.24q0-3.05 1.56-4.68 1.55-1.62 4.41-1.62 2.86 0 4.44 1.69 1.57 1.69 1.57 4.61v4.24q0 2.7-1.47 4.47-1.48 1.77-4.47 1.77-2.99 0-4.52-1.79-1.52-1.78-1.52-4.45zm1.44-4.27v4.5q0 2.06 1.21 3.39 1.2 1.33 3.39 1.33 2.18 0 3.34-1.31 1.16-1.32 1.16-3.41v-4.5q0-2.51-1.24-3.73-1.24-1.22-3.29-1.22-2.06 0-3.31 1.21-1.26 1.2-1.26 3.74z"/>
					<path id="&lt;Compound Path&gt;" class="s3" d="m392.61 140.69q-1.86-0.84-3.31-0.84-1.44 0-2.52 0.37-1.08 0.37-1.83 1.58-0.76 1.2-0.76 3.03v4.67q0 4.5 5.14 4.5 1.58 0 3.44-0.46l0.32 1.19q-2.05 0.55-3.72 0.55-1.68 0-3.28-0.51-3.34-1.1-3.34-5.63v-4.11q0-2.28 0.9-3.83 1.54-2.66 5.07-2.66 2.12 0 4.31 1.03z"/>
					<path id="&lt;Compound Path&gt;" fill-rule="evenodd" class="s3" d="m402.13 155.25q-7.04 0-7.04-5.75v-2.67q0-3.18 2.25-4.28 1.15-0.54 2.34-0.54 3.92 0 6.34 1.8-0.01-1.84-1.11-2.96-1.11-1.12-4.07-1.12-0.06 0-0.16 0l0.1-1.16q2.6 0 3.85 0.61 0.68 0.35 1.19 0.71 0.51 0.35 0.81 0.93 0.28 0.58 0.48 1.01 0.19 0.43 0.26 1.17 0.09 1.13 0.09 2.35v9.58q-3.34 0.32-5.33 0.32zm-5.63-8.33v2.8q0 1.54 0.76 2.54 0.75 0.99 2.04 1.32 2.89 0.77 6.72 0.13v-8.71q-2.67-1.48-5.82-1.67-0.16 0-0.29 0-1.38-0.01-2.4 0.85-1.01 0.85-1.01 2.74z"/>
					<path id="&lt;Compound Path&gt;" class="s3" d="m411.12 132.43h1.45v22.5h-1.45z"/>
					<path id="&lt;Compound Path&gt;" class="s3" d="m417.92 133.6q-0.27-0.27-0.27-0.62 0-0.36 0.27-0.61 0.27-0.26 0.63-0.26 0.35 0 0.61 0.26 0.26 0.25 0.26 0.61 0 0.35-0.26 0.62-0.26 0.28-0.61 0.28-0.36 0-0.63-0.28zm-0.11 5.23h1.44v16.1h-1.44z"/>
					<path id="&lt;Compound Path&gt;" class="s3" d="m432.63 139.37l-0.52 1.22q-1.22-0.83-3.02-0.85-1.8-0.01-2.96 0.79-1.15 0.8-1.16 2.15 0.01 1.32 1.11 2.01 1.11 0.69 2.51 1.11 1.4 0.42 2.8 0.92 1.39 0.49 2.36 1.54 0.96 1.04 0.96 2.81 0 1.77-1.43 3.05-1.43 1.29-4.17 1.29-2.75 0-4.33-1.32-1.57-1.32-1.64-3.25h1.39q0.19 1.52 1.46 2.37 1.27 0.85 3.02 0.85 1.75 0 3-0.81 1.26-0.8 1.26-2.16 0-1.37-0.94-2.17-0.93-0.81-2.31-1.24-1.38-0.43-2.76-0.88-1.38-0.45-2.45-1.35-1.25-1.06-1.25-2.66 0-1.59 1.27-2.97 1.27-1.38 4.2-1.38 0.99 0 1.89 0.24 0.9 0.24 1.29 0.47z"/>
					<path id="&lt;Compound Path&gt;" fill-rule="evenodd" class="s3" d="m444.06 155.25q-7.03 0-7.03-5.75v-2.67q0-3.18 2.25-4.28 1.15-0.54 2.34-0.54 3.92 0 6.34 1.8-0.01-1.84-1.11-2.96-1.11-1.12-4.07-1.12-0.06 0-0.16 0l0.09-1.16q2.61 0 3.86 0.61 0.68 0.35 1.19 0.71 0.51 0.35 0.8 0.93 0.29 0.58 0.49 1.01 0.19 0.43 0.25 1.17 0.1 1.13 0.1 2.35v9.58q-3.34 0.32-5.34 0.32zm-5.62-8.33v2.8q0 1.54 0.76 2.54 0.75 0.99 2.04 1.32 2.89 0.77 6.72 0.13v-8.71q-2.67-1.48-5.82-1.67-0.16 0-0.29 0-1.38-0.01-2.4 0.85-1.01 0.85-1.01 2.74z"/>
					<path id="&lt;Compound Path&gt;" class="s3" d="m451.59 132.43h1.44v6.4h4.21l-0.64 1.38h-3.57v10.47q0 2.74 2.38 3.51l-0.42 1.15q-1.8-0.51-2.6-1.63-0.8-1.13-0.8-3.03z"/>
					<path id="&lt;Compound Path&gt;" class="s3" d="m460.76 133.6q-0.27-0.27-0.27-0.62 0-0.36 0.27-0.61 0.27-0.26 0.63-0.26 0.35 0 0.61 0.26 0.26 0.25 0.26 0.61 0 0.35-0.26 0.62-0.26 0.28-0.61 0.28-0.36 0-0.63-0.28zm-0.11 5.23h1.44v16.1h-1.44z"/>
					<path id="&lt;Compound Path&gt;" fill-rule="evenodd" class="s3" d="m466.34 149.01v-4.24q0-3.05 1.55-4.68 1.56-1.62 4.42-1.62 2.86 0 4.44 1.69 1.57 1.69 1.57 4.61v4.24q0 2.7-1.47 4.47-1.48 1.77-4.47 1.77-2.99 0-4.52-1.79-1.52-1.78-1.52-4.45zm1.44-4.27v4.5q0 2.06 1.21 3.39 1.2 1.33 3.39 1.33 2.18 0 3.34-1.31 1.16-1.32 1.16-3.41v-4.5q0-2.51-1.24-3.73-1.24-1.22-3.29-1.22-2.06 0-3.31 1.21-1.26 1.2-1.26 3.74z"/>
					<path id="&lt;Compound Path&gt;" class="s3" d="m487.48 139.89q-2.5 0-4.53 1.09v13.95h-1.44v-16.1h1.44v0.86q1.8-1.12 4.6-1.12 1.83 0 3.08 0.61 2.74 1.25 2.74 4.63v11.12h-1.42v-11.06q0-1.73-0.98-2.75-0.98-1.01-2.39-1.17-0.55-0.06-1.1-0.06z"/>
					<path id="&lt;Compound Path&gt;" fill-rule="evenodd" class="s3" d="m512.65 138.57q2.76 0 4.5 1.09v-7.23h1.44v22.5q-2.76 0.38-5.11 0.38-2.34 0-4.24-0.96-2.51-1.29-2.51-4.47v-6.07q0-3.38 2.74-4.63 1.35-0.61 3.18-0.61zm4.5 2.38q-1.96-1.06-4.6-1.06-0.48 0-0.96 0.03-1.45 0.13-2.45 1.16-0.99 1.02-0.99 2.82v6.01q0 1.96 1.38 2.99 1.41 1.06 3.44 1.06 2.03 0 4.18-0.32z"/>
					<path id="&lt;Compound Path&gt;" fill-rule="evenodd" class="s3" d="m531.8 153.8q-2.47 1.51-5.17 1.51-5.6 0-5.59-4.69v-6.59q0-2.6 1.62-4.05 1.62-1.44 4.29-1.44 2.66 0 4.16 1.43 1.5 1.43 1.5 3.96v3.86l-10.13 0.55v2.31q0 1.83 1.19 2.62 1.19 0.79 2.7 0.79 2.31 0 4.85-1.38zm-9.32-9.77v2.89l8.68-0.45v-2.7q0-2.15-1.32-3.07-1.31-0.92-3.07-0.91-1.75-0.01-3.02 1.02-1.27 1.03-1.27 3.22z"/>
					<path id="&lt;Compound Path&gt;" class="s3" d="m545.3 132.43h1.45l12.95 19.86v-19.86h1.41v22.5h-1.41l-12.95-19.9v19.9h-1.45z"/>
					<path id="&lt;Compound Path&gt;" fill-rule="evenodd" class="s3" d="m565.19 149.01v-4.24q0-3.05 1.56-4.68 1.56-1.62 4.42-1.62 2.86 0 4.44 1.69 1.57 1.69 1.57 4.61v4.24q0 2.7-1.48 4.47-1.48 1.77-4.46 1.77-2.99 0-4.52-1.79-1.53-1.78-1.53-4.45zm1.45-4.27v4.5q0 2.06 1.21 3.39 1.2 1.33 3.39 1.33 2.18 0 3.34-1.31 1.16-1.32 1.16-3.41v-4.5q0-2.51-1.24-3.73-1.24-1.22-3.3-1.22-2.05 0-3.31 1.21-1.25 1.2-1.25 3.74z"/>
					<path id="&lt;Compound Path&gt;" class="s3" d="m579.46 138.83h1.45v10.7q0 4.43 4.6 4.43 2.05 0 3.27-1.07 1.23-1.08 1.23-3.2v-10.86h1.44v16.1h-1.41l0.09-1.9q-1.64 2.25-4.62 2.25-6.05 0-6.05-5.91z"/>
					<path id="&lt;Compound Path&gt;" class="s3" d="m593.25 138.83h1.51l4.66 14.42 4.69-14.42h1.51l-5.27 16.1h-1.86z"/>
					<path id="&lt;Compound Path&gt;" fill-rule="evenodd" class="s3" d="m617.1 153.8q-2.48 1.51-5.18 1.51-5.59 0-5.59-4.69v-6.59q0-2.6 1.62-4.05 1.63-1.44 4.29-1.44 2.67 0 4.17 1.43 1.49 1.43 1.49 3.96v3.86l-10.12 0.55v2.31q0 1.83 1.18 2.62 1.19 0.79 2.7 0.79 2.32 0 4.86-1.38zm-9.32-9.77v2.89l8.67-0.45v-2.7q0-2.15-1.31-3.07-1.32-0.92-3.07-0.91-1.75-0.01-3.02 1.02-1.27 1.03-1.27 3.22z"/>
					<path id="&lt;Compound Path&gt;" class="s3" d="m621.66 132.43h1.45v22.5h-1.45z"/>
					<path id="&lt;Compound Path&gt;" class="s3" d="m628.18 132.43h1.45v22.5h-1.45z"/>
					<path id="&lt;Compound Path&gt;" fill-rule="evenodd" class="s3" d="m644.09 153.8q-2.47 1.51-5.17 1.51-5.59 0-5.59-4.69v-6.59q0-2.6 1.62-4.05 1.62-1.44 4.29-1.44 2.67 0 4.16 1.43 1.5 1.43 1.5 3.96v3.86l-10.13 0.55v2.31q0 1.83 1.19 2.62 1.19 0.79 2.7 0.79 2.31 0 4.85-1.38zm-9.32-9.77v2.89l8.68-0.45v-2.7q0-2.15-1.32-3.07-1.31-0.92-3.07-0.91-1.75-0.01-3.02 1.02-1.27 1.03-1.27 3.22z"/>
					<path id="&lt;Compound Path&gt;" class="s3" d="m647.59 141.65h10.29v1.42h-10.29z"/>
					<path id="&lt;Compound Path&gt;" class="s3" d="m673.05 154.19q-2.73 1.06-5.21 1.06-0.51 0-1.56-0.1-1.04-0.09-2.21-0.72-1.18-0.63-1.9-1.99-0.72-1.37-0.72-3.39v-10.32q0-2.44 0.69-3.7 0.69-1.25 2.1-2.12 1.45-0.8 3.44-0.8 2.51 0 4.57 1.06l-0.45 1.03q-1.87-0.77-3.7-0.77-2.57 0-3.89 1.28-0.55 0.52-0.93 1.48-0.39 0.96-0.39 2.25v10.54q0 3.44 2.54 4.53 1 0.42 2.72 0.42 1.72 0 4.58-0.96z"/>
					<path id="&lt;Compound Path&gt;" fill-rule="evenodd" class="s3" d="m681.5 155.25q-7.04 0-7.04-5.75v-2.67q0-3.18 2.25-4.28 1.16-0.54 2.35-0.54 3.92 0 6.33 1.8 0-1.84-1.11-2.96-1.11-1.12-4.07-1.12-0.06 0-0.16 0l0.1-1.16q2.6 0 3.86 0.61 0.67 0.35 1.19 0.71 0.51 0.35 0.8 0.93 0.29 0.58 0.48 1.01 0.2 0.43 0.26 1.17 0.1 1.13 0.1 2.35v9.58q-3.35 0.32-5.34 0.32zm-5.62-8.33v2.8q0 1.54 0.75 2.54 0.76 0.99 2.04 1.32 2.9 0.77 6.72 0.13v-8.71q-2.67-1.48-5.82-1.67-0.16 0-0.29 0-1.38-0.01-2.39 0.85-1.01 0.85-1.01 2.74z"/>
					<path id="&lt;Compound Path&gt;" class="s3" d="m690.5 132.43h1.45v22.5h-1.45z"/>
					<path id="&lt;Compound Path&gt;" fill-rule="evenodd" class="s3" d="m707.79 153.8q-2.48 1.51-5.17 1.51-5.6 0-5.6-4.69v-6.59q0-2.6 1.62-4.05 1.63-1.44 4.3-1.44 2.66 0 4.16 1.43 1.49 1.43 1.49 3.96v3.86l-10.12 0.55v2.31q0 1.83 1.19 2.62 1.19 0.79 2.7 0.79 2.31 0 4.85-1.38zm-9.32-9.77v2.89l8.68-0.45v-2.7q0-2.15-1.32-3.07-1.32-0.92-3.07-0.91-1.75-0.01-3.02 1.02-1.27 1.03-1.27 3.22zm3.76-6.4l1.67-3.89q0.29-0.64 0.84-0.64 0.77 0 0.96 0.61 0.03 0.16 0.03 0.35 0 0.2-0.16 0.42l-2.18 3.15z"/>
					<path id="&lt;Compound Path&gt;" fill-rule="evenodd" class="s3" d="m717.91 138.57q2.76 0 4.5 1.09v-7.23h1.45v22.5q-2.77 0.38-5.11 0.38-2.35 0-4.24-0.96-2.51-1.29-2.51-4.47v-6.07q0-3.38 2.73-4.63 1.35-0.61 3.18-0.61zm4.5 2.38q-1.96-1.06-4.59-1.06-0.49 0-0.97 0.03-1.45 0.13-2.44 1.16-1 1.02-1 2.82v6.01q0 1.96 1.38 2.99 1.42 1.06 3.44 1.06 2.03 0 4.18-0.32z"/>
					<path id="&lt;Compound Path&gt;" fill-rule="evenodd" class="s3" d="m726.49 149.01v-4.24q0-3.05 1.56-4.68 1.56-1.62 4.42-1.62 2.86 0 4.44 1.69 1.57 1.69 1.57 4.61v4.24q0 2.7-1.48 4.47-1.48 1.77-4.46 1.77-2.99 0-4.52-1.79-1.53-1.78-1.53-4.45zm1.45-4.27v4.5q0 2.06 1.2 3.39 1.21 1.33 3.4 1.33 2.18 0 3.34-1.31 1.15-1.32 1.16-3.41v-4.5q-0.01-2.51-1.24-3.73-1.24-1.22-3.3-1.22-2.06 0-3.31 1.21-1.25 1.2-1.25 3.74z"/>
					<path id="&lt;Compound Path&gt;" class="s3" d="m747.64 139.89q-2.51 0-4.53 1.09v13.95h-1.45v-16.1h1.45v0.86q1.8-1.12 4.6-1.12 1.83 0 3.08 0.61 2.73 1.25 2.73 4.63v11.12h-1.41v-11.06q0-1.73-0.98-2.75-0.98-1.01-2.4-1.17-0.54-0.06-1.09-0.06z"/>
					<path id="&lt;Compound Path&gt;" class="s3" d="m758.45 133.6q-0.27-0.27-0.27-0.62 0-0.36 0.27-0.61 0.28-0.26 0.63-0.26 0.35 0 0.61 0.26 0.26 0.25 0.26 0.61 0 0.35-0.26 0.62-0.26 0.28-0.61 0.28-0.35 0-0.63-0.28zm-0.11 5.23h1.45v16.1h-1.45z"/>
					<path id="&lt;Compound Path&gt;" fill-rule="evenodd" class="s3" d="m774.41 153.8q-2.47 1.51-5.17 1.51-5.6 0-5.6-4.69v-6.59q0-2.6 1.63-4.05 1.62-1.44 4.29-1.44 2.66 0 4.16 1.43 1.49 1.43 1.49 3.96v3.86l-10.12 0.55v2.31q0 1.83 1.19 2.62 1.19 0.79 2.7 0.79 2.31 0 4.85-1.38zm-9.32-9.77v2.89l8.68-0.45v-2.7q0-2.15-1.32-3.07-1.32-0.92-3.07-0.91-1.75-0.01-3.02 1.02-1.27 1.03-1.27 3.22z"/>
				</g>
			</g>
			<g id="&lt;Group&gt;">
				<path id="&lt;Compound Path&gt;" class="s9" d="m157.94 75.84h7.36v42.16h-7.36z"/>
				<path id="&lt;Compound Path&gt;" fill-rule="evenodd" class="s9" d="m200.7 103.28c0 10.63-7.48 15.38-14.85 15.38-8.19 0-14.49-5.64-14.49-14.91 0-9.5 6.24-15.32 14.97-15.32 8.61 0 14.37 6.06 14.37 14.85zm-21.79 0.29c0 5.59 2.73 9.8 7.18 9.8 4.16 0 7.07-4.1 7.07-9.92 0-4.51-2.02-9.68-7.01-9.68-5.17 0-7.24 4.99-7.24 9.8z"/>
				<path id="&lt;Compound Path&gt;" class="s9" d="m227.97 117.11c-1.55 0.72-4.58 1.49-8.2 1.49-9.03 0-14.91-5.76-14.91-14.73 0-8.67 5.94-15.44 16.1-15.44 2.67 0 5.4 0.59 7.07 1.37l-1.31 5.46c-1.19-0.53-2.91-1.13-5.52-1.13-5.59 0-8.91 4.1-8.85 9.38 0 5.94 3.86 9.33 8.85 9.33 2.55 0 4.33-0.54 5.76-1.13z"/>
				<path id="&lt;Compound Path&gt;" fill-rule="evenodd" class="s9" d="m249.65 118l-0.48-3.2h-0.18c-1.78 2.25-4.81 3.86-8.55 3.86-5.82 0-9.08-4.22-9.08-8.61 0-7.31 6.47-10.99 17.16-10.93v-0.47c0-1.9-0.77-5.05-5.88-5.05-2.85 0-5.82 0.89-7.78 2.14l-1.43-4.76c2.14-1.3 5.88-2.55 10.46-2.55 9.26 0 11.93 5.88 11.93 12.17v10.46c0 2.61 0.12 5.16 0.42 6.94zm-0.95-14.13c-5.17-0.12-10.1 1.01-10.1 5.4 0 2.86 1.84 4.16 4.16 4.16 2.91 0 5.05-1.9 5.7-3.98 0.18-0.53 0.24-1.12 0.24-1.6z"/>
				<path id="&lt;Compound Path&gt;" class="s9" d="m263.55 75.84h7.37v42.16h-7.37z"/>
				<path id="&lt;Compound Path&gt;" class="s9" d="m286.6 81.01c0 2.19-1.61 3.92-4.16 3.92-2.44 0-4.04-1.73-4.04-3.92 0-2.26 1.66-3.98 4.1-3.98 2.49 0 4.04 1.72 4.1 3.98zm-7.78 36.99v-28.92h7.36v28.92z"/>
				<path id="&lt;Compound Path&gt;" class="s9" d="m293.67 111.29c1.66 1.01 4.81 2.08 7.42 2.08 3.21 0 4.63-1.3 4.63-3.2 0-1.96-1.19-2.97-4.75-4.22-5.64-1.96-8.02-5.05-7.96-8.43 0-5.11 4.22-9.09 10.93-9.09 3.21 0 6 0.83 7.66 1.72l-1.42 5.17c-1.25-0.71-3.57-1.66-6.12-1.66-2.61 0-4.04 1.24-4.04 3.02 0 1.85 1.37 2.74 5.05 4.04 5.22 1.9 7.66 4.58 7.72 8.85 0 5.23-4.1 9.03-11.76 9.03-3.5 0-6.65-0.83-8.79-2.02z"/>
				<path id="&lt;Compound Path&gt;" fill-rule="evenodd" class="s9" d="m335.06 118l-0.47-3.2h-0.18c-1.78 2.25-4.81 3.86-8.55 3.86-5.82 0-9.09-4.22-9.09-8.61 0-7.31 6.48-10.99 17.17-10.93v-0.47c0-1.9-0.78-5.05-5.88-5.05-2.85 0-5.82 0.89-7.78 2.14l-1.43-4.76c2.14-1.3 5.88-2.55 10.45-2.55 9.27 0 11.94 5.88 11.94 12.17v10.46c0 2.61 0.12 5.16 0.42 6.94zm-0.95-14.13c-5.17-0.12-10.1 1.01-10.1 5.4 0 2.86 1.84 4.16 4.16 4.16 2.91 0 5.05-1.9 5.7-3.98 0.18-0.53 0.24-1.12 0.24-1.6z"/>
				<path id="&lt;Compound Path&gt;" class="s9" d="m356.98 80.83v8.25h6.95v5.47h-6.95v12.77c0 3.5 0.95 5.34 3.75 5.34 1.24 0 2.19-0.18 2.85-0.36l0.12 5.59c-1.07 0.41-2.97 0.71-5.29 0.71-2.67 0-4.93-0.89-6.29-2.38-1.55-1.66-2.26-4.27-2.26-8.07v-13.6h-4.16v-5.47h4.16v-6.53z"/>
				<path id="&lt;Compound Path&gt;" class="s9" d="m377.24 81.01c0 2.19-1.6 3.92-4.16 3.92-2.43 0-4.04-1.73-4.04-3.92 0-2.26 1.67-3.98 4.1-3.98 2.5 0 4.04 1.72 4.1 3.98zm-7.78 36.99v-28.92h7.36v28.92z"/>
				<path id="&lt;Compound Path&gt;" fill-rule="evenodd" class="s9" d="m412.16 103.28c0 10.63-7.48 15.38-14.84 15.38-8.2 0-14.49-5.64-14.49-14.91 0-9.5 6.23-15.32 14.96-15.32 8.61 0 14.37 6.06 14.37 14.85zm-21.79 0.29c0 5.59 2.73 9.8 7.18 9.8 4.16 0 7.07-4.1 7.07-9.92 0-4.51-2.02-9.68-7.01-9.68-5.16 0-7.24 4.99-7.24 9.8z"/>
				<path id="&lt;Compound Path&gt;" class="s9" d="m418.17 97.69c0-3.32-0.06-6.11-0.24-8.61h6.41l0.36 4.34h0.18c1.24-2.26 4.39-4.99 9.2-4.99 5.05 0 10.28 3.27 10.28 12.41v17.16h-7.31v-16.33c0-4.15-1.54-7.3-5.52-7.3-2.91 0-4.93 2.08-5.7 4.28-0.24 0.65-0.3 1.54-0.3 2.37v16.98h-7.36z"/>
				<path id="&lt;Compound Path&gt;" class="s1" d="m451.19 113.19c0-3.2 2.2-5.52 5.35-5.52 3.15 0 5.28 2.26 5.28 5.52 0 3.15-2.13 5.47-5.34 5.47-3.09 0-5.29-2.32-5.29-5.47z"/>
				<path id="&lt;Compound Path&gt;" fill-rule="evenodd" class="s4" d="m495.03 88.96c-0.12 1.85-0.24 4.28-0.24 8.62v16.21c0 5.58-1.13 10.15-4.4 13.06-3.2 2.73-7.54 3.57-11.81 3.57-3.8 0-7.84-0.77-10.46-2.26l1.79-6.83c1.84 1.07 5.04 2.2 8.43 2.2 4.28 0 7.54-2.32 7.54-7.66v-1.9h-0.12c-1.72 2.43-4.51 3.8-7.84 3.8-7.18 0-12.29-5.82-12.29-14.2 0-9.32 6.06-15.26 13.18-15.26 3.98 0 6.48 1.72 7.96 4.1h0.12l0.3-3.45zm-9.27 11.82c0-0.59-0.05-1.19-0.17-1.66-0.66-2.37-2.38-3.98-4.87-3.98-3.27 0-5.94 2.97-5.94 8.26 0 4.33 2.14 7.72 5.94 7.72 2.31 0 4.15-1.55 4.75-3.69 0.24-0.65 0.29-1.6 0.29-2.37z"/>
				<path id="&lt;Compound Path&gt;" fill-rule="evenodd" class="s4" d="m530.72 103.16c0 10.63-7.54 15.5-15.32 15.5-8.49 0-15.02-5.58-15.02-14.97 0-9.38 6.17-15.38 15.5-15.38 8.91 0 14.84 6.12 14.84 14.85zm-21.02 0.29c0 4.99 2.08 8.73 5.94 8.73 3.5 0 5.76-3.5 5.76-8.73 0-4.33-1.66-8.72-5.76-8.72-4.34 0-5.94 4.45-5.94 8.72z"/>
				<path id="&lt;Compound Path&gt;" class="s4" d="m563.69 108.68c0 3.8 0.12 6.89 0.24 9.32h-7.84l-0.42-4.09h-0.17c-1.13 1.78-3.86 4.75-9.09 4.75-5.88 0-10.21-3.68-10.21-12.65v-17.05h9.08v15.62c0 4.22 1.37 6.77 4.51 6.77 2.5 0 3.92-1.72 4.52-3.14 0.23-0.54 0.3-1.25 0.3-1.96v-17.29h9.08z"/>
				<path id="&lt;Compound Path&gt;" class="s4" d="m577.66 88.96l3.92 13.49c0.71 2.43 1.24 4.75 1.66 7.06h0.18c0.47-2.37 0.95-4.57 1.6-7.06l3.74-13.49h9.5l-10.8 29.04h-9.03l-10.57-29.04z"/>
				<path id="&lt;Compound Path&gt;" class="s0" d="m597.44 112.03c0-3.99 2.73-6.86 6.64-6.86 3.92 0 6.57 2.8 6.57 6.86 0 3.91-2.65 6.79-6.64 6.79-3.84 0-6.57-2.88-6.57-6.79z"/>
				<path id="&lt;Compound Path&gt;" class="s4" d="m617.75 96.33c0-2.61-0.12-4.58-0.23-6.83h2.61l0.24 5.17h0.12c1.54-3.21 5.1-5.82 9.8-5.82 2.73 0 9.91 1.36 9.91 12.05v17.1h-2.79v-16.86c0-5.17-2.02-9.86-7.9-9.86-4.04 0-7.42 2.85-8.55 6.53-0.24 0.72-0.42 1.67-0.42 2.56v17.63h-2.79z"/>
				<path id="&lt;Compound Path&gt;" class="s4" d="m669.25 116.76c-1.25 0.65-4.22 1.84-8.31 1.84-8.26 0-13.72-5.94-13.72-14.55 0-9.03 6.17-15.2 14.72-15.2 3.51 0 6.36 1 7.49 1.78l-1.01 2.31c-1.43-0.77-3.63-1.66-6.77-1.66-7.66 0-11.58 5.88-11.58 12.59 0 7.42 4.69 12.29 11.28 12.29 3.39 0 5.58-0.95 7.13-1.6z"/>
			</g>
		</g>
	</g>
</svg>