<svg xmlns="http://www.w3.org/2000/svg" viewBox="0 0 638 210" width="319" height="105">
  <style>
    .shp0{fill:#ffa32b}.shp1{fill:#aadff5}.shp3{fill:#707176}.shp4{fill:#9b9c9f}.shp5{fill:#c4c5c7}.shp9{fill:#58b3e2}.shp10{fill:#babbbd}.shp11{fill:#b0b1b3}
  </style>
  <g id="Calque 1">
    <g id="&lt;Group&gt;">
      <g id="&lt;Group&gt;">
        <path id="&lt;Path&gt;" class="shp0" d="M107.78 80.93c-9.64.31-14.46 3.58-14.46 9.8 0 9.32 14 10.33 14.46 10.33.45 0 14.45-1.01 14.45-10.33 0-6.22-4.82-9.49-14.45-9.8z"/>
        <path id="&lt;Path&gt;" class="shp1" d="M100.96 144.73c1.85 2.55 2.73 5.63 2.5 8.78-.26 3.66-1.92 7.01-4.72 9.42a16.912 16.912 0 01-5.43 3.14c.27.93.52 1.89.71 2.92 2.53 13.65-2.79 14.76-3.68 15.42-.94.67-1.58.71-1.23 1.57.12.33.23.82.28 1.24 2.05-.27 4.05-.72 6.06-1.35 7.96-3.33 12.54-6.55 15.01-8.74.93-.88 1.79-1.82 2.6-2.81-4.18-9.78-3.4-11.2-4.43-19.33-.48-3.84-3.96-7.45-7.67-10.26z"/>
        <path id="&lt;Path&gt;" class="shp1" d="M101.65 153.39c.2-3.14-.84-6.17-2.93-8.55-3.4-3.87-9.37-4.27-13.3-.9a7.175 7.175 0 00-2.52 4.99c-.05.99.08 1.98.42 2.91 2.09 2.83 5.63 2.74 6.77 2.53 1.5-.29 5.32-1.47 4.64-4.96-.9-4.58-4.13-3.81-5.27-3.58-1.15.22-1.98 1.3-1.83 2.73.13 1.43 2.59 1.13 2.4.15-.22-1.13 1.61-1.42 1.53-.02-.15 3.16-4.92 3.36-5.64-.27-.58-2.9 2.61-5.2 4.17-5.51 1.55-.31 6.25.1 7.14 4.74.92 4.64-2.53 7.71-5.52 8.5-1.99.53-2.83 1-2.53 1.4 1.35 1.74 2.53 4 3.56 6.79 1.71-.62 3.36-1.54 4.8-2.8 2.43-2.09 3.88-4.98 4.11-8.15z"/>
        <path id="&lt;Path&gt;" d="M67.52 186.58h.03c-.07-.16-.32.01-.03 0z" fill="#244d74"/>
        <path id="&lt;Path&gt;" class="shp3" d="M69.3 186.75c-.81.07-1.3-.19-1.75-.17.04.12-.07.48-.73 1.34-1.01 1.27-1.21 2.17-.61 2.71 7.41 1.01 14.35-.25 18.12-1.19-5.12.04-10.2-.85-15.03-2.69zM54.65 177.71c-4.56 2.67-8.23 3.48-11 2.43-.04.87-.99 1.04-2.14 2.24-.78.81-1.12 1.33-1.03 1.54 6.61 3.47 14.26 5.48 22.94 6.05l.44-1.06c-1.25-.64-.12-2.21 1.51-3.9a39.862 39.862 0 01-10.31-7.55c-.15.08-.29.17-.41.25zM38.17 157.51c-9.07 4.15-11.32 5.84-13.57 6.15-2.24.31-2.01-.23-2.72.13-.69.34-3-.33 3.55 7.7 6.55 8.01 9.28 8.74 10.19 9.41.89.66 1.9-1.37 2.42-2.18.56-.8.36-.41-.97-1.82-.89-.95-.66-2.07.67-3.36 1.97-2.74 5.27-5.21 9.04-7.47a49.5 49.5 0 01-4.08-10.57c-1.46.61-2.97 1.29-4.53 2.01z"/>
        <path id="&lt;Path&gt;" class="shp4" d="M41.27 140.25c-10.29.87-22.66 5.27-24.65 6.23-2.38 1.17-3.94 1.35-3.52 3.57.7 3.5 2.75 7.52 6.16 12.07l3.46-1.24c-.02-2.64.85-2.46 7.25-6.19 3.15-1.8 7.45-3.62 11.6-5.14-.39-3.07-.49-6.17-.3-9.3zM9.73 130.43c-.25 4.15.29 8.87 1.62 14.16l2.74-.6c-.75-3.43 2.75-4.47 7.36-5.65 3.57-.91 11.89-2.05 20.33-2.67a50.6 50.6 0 012.4-9.36c-11.15-.56-22.64.81-34.45 4.12z"/>
        <path id="&lt;Path&gt;" class="shp5" d="M62.17 102.84c-1.92-1.85-3.89-3.69-5.7-5.33-4.76-4.24-15.55-7.48-32.36-9.72-2.72.9-5.19 4.74-7.4 11.52l3.8 1.14 1.1-1.82c3.87-4.25 22.07 3.02 27.27 5.28 2.13.92 4.76 2.49 7.2 4.07.75-.75 1.55-1.48 2.37-2.2 1.22-1.03 2.46-2.01 3.72-2.94zM13.18 108.41c-1.75.8-3.03 6.32-3.82 16.56l3.01-.04c-.09-.44.21-1.1.88-1.99.99-1.31 9.84-4.72 29.41-4.09 1.63.04 3.19.2 4.75.43 1.24-2.22 2.64-4.33 4.18-6.34-13.05-4.4-25.85-5.91-38.41-4.53z"/>
        <path id="&lt;Path&gt;" d="M72.85 113.45c.01 0 .03 0 .05.01-.02-.01-.04-.01-.05-.01z" fill="#295c8f"/>
        <path id="&lt;Path&gt;" d="M67.27 73.85c-4.34-4.05-10.63-7.44-18.85-10.16-7.65 3.84-13.23 8.72-16.72 14.63 2.79-.45 8.52 1.06 17.18 4.53.06-.24.44-.71 1.13-1.41.7-.7 1.62-.67 2.76.09 8.38 5.35 13.74 11.37 17.06 16.46 3.78-2.01 7.72-3.61 11.75-4.81-4.94-7.54-10.91-16.17-14.31-19.33z" fill="#e2e2e3"/>
        <path id="&lt;Path&gt;" d="M110.46 177.13c1.29-1.13 2.15-2.06 2.6-2.79v-.02c-.81.99-1.67 1.93-2.6 2.81z" fill="#fff"/>
        <path id="&lt;Path&gt;" class="shp9" d="M87.97 165.24c-.05-2.24-.05-4.16-.23-5.09-.25-1.21-.84-1.6-1.78-1.18.16 1.71.01 3.76-.46 6.15.81.1 1.63.16 2.47.12zM87.37 181.56c1.01-3.54 2.02-4.79 1.18-9.39-.29-1.64-.43-3.43-.52-5.11-1 .04-1.97-.03-2.96-.16-.51 1.86-1.28 3.9-2.46 5.94-5.03 8.56-8.37 11.74-10.45 12.99a40.05 40.05 0 0014.76 1.69c-.82-2.45-.4-2.83.45-5.96zM69.46 181.09c2.32-2.4 6.42-8.2 7.54-11.41.55-1.51 1.13-3.26 1.71-5.01-1.48-.88-2.85-2-4.04-3.35-.06-.06-.09-.12-.14-.16-6.09 6.81-12.61 11.97-17.88 15.3a38.69 38.69 0 0010.11 7.21c.98-.94 1.98-1.85 2.7-2.58zM79.31 162.9c.82-2.47 1.58-4.78 2.27-6.93l-2.33-.59a90.56 90.56 0 01-3.51 4.37l.29.35c.97 1.11 2.09 2.04 3.28 2.8zM70.86 154.99c-.37-.91-.67-1.85-.88-2.8-2.05-.11-4.55-.3-7.51-.58-6.16-.59-11.75.71-18.06 3.2a47.63 47.63 0 003.96 10.35c4.63-2.61 9.78-4.91 14.07-6.97 3.14-1.5 6-2.51 8.42-3.2zM77.49 153.63l-1.13-1.18c-.52 0-2.02-.02-4.47-.14.21.74.43 1.49.72 2.21 2.01-.5 3.63-.79 4.88-.89zM69.53 146.15c.05-.63.12-1.26.22-1.87-4.4-1.11-14.98-3.6-23.32-4.14-1.07-.06-2.18-.06-3.32 0-.19 2.95-.1 5.88.23 8.76 3.66-1.29 7.01-2.34 9.13-2.94 3.52-1 12.45-.28 17.06.19zM70.98 139.91c.48-1.2 1.06-2.36 1.78-3.44-2.08-1.42-10.83-7.16-19.45-9.02-2.34-.49-4.76-.83-7.23-1.02a48.741 48.741 0 00-2.43 9.11c1.75-.12 3.49-.21 5.18-.26 8.1-.29 18.07 3.1 22.15 4.63zM76.74 131.88c.51-.45 1.03-.86 1.59-1.26.03-.44.03-.82 0-1.15-1.75-1.33-3.11-4.02-4.09-8.08-2.99-.25-3.92-3.5-2.87-6.08.85-2.19 1.35-1.99 1.48-1.86-.41-.46-4.57-4.71-9.34-9.33-1.32.98-2.61 1.97-3.87 3.06-.69.59-1.36 1.2-2.01 1.83 2.88 1.95 5.16 3.67 5.43 3.93.52.54.75 1.39 1 1.92.16.33-.36 1.25-1.54 2.75-3-1.59-6.02-2.9-9.08-4.01-1.52 1.89-2.9 3.89-4.12 5.98 13.15 2.47 23.26 10.21 26.62 13.05.27-.25.5-.52.8-.75zM74.64 108.79c.51 3.4 1.22 3.05 2.22 3.2 1.02.15 3.36.31 4.14 3.18.51 1.89-.55 3.53-3.18 4.89l3.13 8.85c1.4-.79 2.87-1.44 4.36-1.96-.04-12.34 1.45-19.29 4.47-20.86-2.06-3.4-4.45-7.17-7.16-11.31a61.32 61.32 0 00-11.82 4.77c2.53 4.29 3.6 7.74 3.84 9.24zM82.42 133.08c.32-.02 1.31-.63 2.99-1.84-.03-.83-.04-1.6-.07-2.35-1.3.48-2.55 1.08-3.78 1.79l.86 2.4z"/>
        <path id="&lt;Path&gt;" class="shp9" d="M85.34 128.89c-.03-.66-.03-1.31-.03-1.94-1.49.52-2.96 1.17-4.36 1.96l.61 1.77a24.56 24.56 0 013.78-1.79z"/>
        <path id="&lt;Path&gt;" class="shp10" d="M123.96 64.49c-.14-.19-.36-.79-.54-2.39-.18-1.6.42-4.12-.41-8.75-.84-4.63-3.65-6.4-4.01-6.56-.37-.15-.59.25.22 1.97.8 1.71 1.9 5.86 1.75 8.43-.16 2.58-1.72 4.26-4.24 6.2-1.68 1.29-4.67 2.05-8.95 2.28-4.31-.23-7.31-.99-8.99-2.28-2.5-1.94-4.06-3.62-4.23-6.2-.12-2.57.97-6.72 1.78-8.43.8-1.72.57-2.12.2-1.97-.37.16-3.18 1.93-4.01 6.56-.83 4.63-.21 7.15-.39 8.75-.2 1.6-.41 2.2-.57 2.39-.16.18-.18.25.42.41.63.14 4.59 1.85 7.77 3.11 3.19 1.27 6.45 1.98 8.02 1.98 1.56 0 4.82-.71 8-1.98 3.18-1.26 7.15-2.97 7.76-3.11.62-.16.58-.23.42-.41zM121.22 106.72c-1.35 0-2.99-.46-5.65-1.2-1.78-.49-4.38-.66-7.79-.51-3.42-.15-6.02.02-7.8.51-2.67.74-4.3 1.2-5.64 1.2-.9 0-1.34.01-1.34.03.07.45.12.72.13.8.05.11 1.01.05 2.04.73 1 .67 6.31 1.87 12.61 1.87 6.27 0 11.58-1.2 12.6-1.87 1.01-.68 1.99-.62 2.04-.73.02-.08.05-.35.11-.8.02-.02-.42-.03-1.31-.03zM124.53 124.76c-.63-3.27-.41-6.81-.41-7.24 0-.29-.09-.39-.28-.31-4.73-.74-5.44-1.44-9.37-2.57-2.63-.76-4.86-1.05-6.69-.86-1.85-.19-4.08.1-6.7.86-3.93 1.13-4.66 1.83-9.38 2.57-.19-.08-.29.02-.29.31 0 .43.21 3.97-.39 7.24-.61 3.29-.67 8.38.11 11.11.03.18.19.23.49.15.48-.13.57-.4.91-1.2.33-.8.26-1.23.21-2.79-.05-1.57-.05-6.44 3.24-9.14 3.33-2.71 6.42-4.85 11.8-4.85 5.37 0 8.47 2.14 11.77 4.85 3.3 2.7 3.3 7.57 3.26 9.14-.07 1.56-.12 1.99.2 2.79.36.8.44 1.07.89 1.2.32.08.5.03.53-.15.77-2.73.71-7.82.1-11.11z"/>
        <path id="&lt;Path&gt;" class="shp10" d="M107.78 122.63c-2.24 0-8.84 1.57-8.51 9.55.2 5.56 7.49 8 7.85 8.12.37.11.38.19.66.19.26 0 .27-.08.63-.19.37-.12 7.66-2.56 7.86-8.12.32-7.98-6.25-9.55-8.49-9.55zM121.22 74.28c-1.5 0-3.41.43-6.37-.53-1.96-.64-4.32-.91-7.07-.83-2.76-.08-5.12.19-7.09.83-2.95.96-4.86.53-6.35.53-1.5 0-1.75.12-1.75.49s.46.98.8 1.21c1.69-.13 2.96-.03 3.81.29 1.26.5 4.52 1.79 10.58 1.79 6.04 0 9.31-1.29 10.58-1.79.83-.32 2.1-.42 3.8-.29.34-.23.8-.84.8-1.21s-.24-.49-1.74-.49zM117.94 25.51c-2.04 1.81-3.44 2.77-4.22 2.87-1.12.14-2.75.06-4.19-1.01-.18-.26-.4-.26-.65 0-.32.34-.9 1.32-1.12 1.71-.04-.3.07-.75.02-.96-.35-1.87.21-3.86.33-4.41.1-.55.42-.84.3-1.13-.16-.41-.43-1.13-.83-2.15.03-.14-.17.04-.59.54-.6.75-1.15 1.73-1.47 1.96-.3.19-.55.46-.12.88.43.44.59 1.17.62 1.53.05.37.22 2.18.08 2.98-.06.23-.03.53.02.87v.06c0 .04 0 .09.03.13.01.13.06.29.14.41-.09.06-.18.1-.27.13-.27.03-.59.23-.98.6-.19.19-.43.42-.73.67v.04c-.36.68-.59 1.11-.67 1.28-.09.14-.14.29-.23.45-1.34 2.92-5.27 5.57-5.78 5.97-.53.41-.15.61-.04.7.09.04.13.3.13.76l.34.01c.06-.14.23-.34.49-.58.39-.37 3.01-1.62 4.51-1.93 1.22-.25 2.75-.22 3.39-.25-.04.08-.04.17-.04.25v.18l-.02 1.76c0 1.28 0 3.36-.08 3.6l-.05.24c-.11 1.01-.68 2.07-3.38 4.42-2.69 2.34-3.65 4.29-3.65 8.06-.01 3.77 5.72 7.24 7.85 7.41l.17.02c2.13-.18 7.87-3.6 7.87-7.37 0-3.78-.95-5.74-3.62-8.08-2.69-2.35-3.14-3.77-3.26-4.78-.12-1-.15-4.88-.15-5.19-.02-.17-.05-.44-.06-.64.06-.05.14-.1.19-.22.49.28.92.4 1.28.34.55-.1.65-.55.77-.58.1 0 .54.28 1 .36.46.04.54-.05.68-.32.03-.07.07-.12.1-.18.13-.27.2-.51.22-.72 1.02.42 1.44.12 1.28-.9.43 0 .93.03 1.03-.31.12-.41.05-1.38.19-1.45.14-.08 1.09-1.03.77-2.02-.32-.96-.34-1.36.53-2.37.9-.99 1.62-1.13 1.49-1.94-.12-.8.09-.82.27-.99.13-.12.17-.36.11-.71z"/>
        <g id="&lt;Group&gt;">
          <path id="&lt;Path&gt;" class="shp11" d="M141.86 180.19c-10.91-1.01-16.01-2.69-15.32-5.05.7-2.35 5.81-.67 15.32 5.05zM141.86 173.2c-10.62-.93-15.58-2.57-14.88-4.92.71-2.36 5.67-.72 14.88 4.92zM141.86 166.62c-10.36-.85-15.19-2.46-14.5-4.82.71-2.35 5.55-.74 14.5 4.82zM141.86 159.42c-10.04-.78-14.71-2.34-14.02-4.7.7-2.34 5.37-.77 14.02 4.7zM141.86 152.42c-9.71-.67-14.21-2.18-13.51-4.52.69-2.36 5.19-.85 13.51 4.52zM141.86 145.42c-9.4-.58-13.75-2.05-13.05-4.4.7-2.34 5.05-.87 13.05 4.4zM141.86 138.41c-9.1-.48-13.3-1.9-12.62-4.25.71-2.36 4.91-.94 12.62 4.25zM141.86 131.74c-8.79-.4-12.84-1.78-12.14-4.13.69-2.35 4.74-.98 12.14 4.13zM141.86 124.74c-8.48-.31-12.36-1.64-11.66-3.99.7-2.36 4.59-1.03 11.66 3.99zM141.86 117.74c-8.19-.22-11.94-1.51-11.24-3.86.69-2.36 4.44-1.07 11.24 3.86zM142.14 110.69c-8.05-.19-11.71-1.46-11-3.8.68-2.36 4.35-1.09 11 3.8zM142.14 103.68c-7.71-.09-11.22-1.31-10.53-3.65.7-2.36 4.21-1.14 10.53 3.65zM142.12 96.71c-7.42-.06-10.79-1.23-10.12-3.52.69-2.28 4.06-1.11 10.12 3.52zM142.49 89.88c-7.31-.04-10.63-1.2-9.95-3.47.68-2.28 4-1.12 9.95 3.47zM142.35 82.96c-6.83-.1-9.94-1.18-9.32-3.23.61-2.05 3.72-.97 9.32 3.23zM142.36 76.07c-6.59-.03-9.57-1.07-8.96-3.13.6-2.06 3.59-1.01 8.96 3.13zM142.34 69.12c-6.24-.04-9.07-1.02-8.5-2.97.59-1.94 3.42-.95 8.5 2.97zM142.79 61.99c-6.26 0-9.11-1-8.54-2.98.62-1.99 3.46-.99 8.54 2.98zM142.76 54.93c-5.94 0-8.62-.94-8.06-2.82.57-1.88 3.26-.94 8.06 2.82zM142.99 48.32c-5.76.13-8.34-.79-7.75-2.75.56-1.96 3.15-1.05 7.75 2.75zM142.98 41.18c-5.39.06-7.82-.79-7.3-2.56.54-1.78 2.97-.92 7.3 2.56zM142.98 34.19c-5.09.15-7.36-.66-6.83-2.44.53-1.77 2.81-.96 6.83 2.44zM142.95 27.34c-4.75.15-6.88-.61-6.37-2.28.49-1.66 2.61-.9 6.37 2.28zM142.93 20.5c-4.46.11-6.45-.59-5.98-2.12.44-1.55 2.44-.84 5.98 2.12zM144.02 180.19c10.9-1.01 16.01-2.69 15.31-5.05-.7-2.35-5.81-.67-15.31 5.05zM144.02 173.2c10.61-.93 15.56-2.57 14.87-4.92-.7-2.36-5.66-.72-14.87 4.92zM144.02 166.62c10.36-.85 15.19-2.46 14.47-4.82-.68-2.35-5.51-.74-14.47 4.82zM144.02 159.42c10.04-.78 14.71-2.34 14.01-4.7-.71-2.34-5.38-.77-14.01 4.7zM144.02 152.42c9.7-.67 14.2-2.18 13.5-4.52-.7-2.36-5.2-.85-13.5 4.52zM144.02 145.42c9.4-.58 13.74-2.05 13.04-4.4-.7-2.34-5.04-.87-13.04 4.4zM144.02 138.41c9.1-.48 13.3-1.9 12.59-4.25-.69-2.36-4.89-.94-12.59 4.25zM144.02 131.74c8.78-.4 12.83-1.78 12.13-4.13-.7-2.35-4.74-.98-12.13 4.13zM144.02 124.74c8.46-.31 12.34-1.64 11.65-3.99-.69-2.36-4.58-1.03-11.65 3.99zM144.02 117.74c8.18-.22 11.92-1.51 11.22-3.86-.71-2.36-4.45-1.07-11.22 3.86zM143.74 110.69c8.03-.19 11.7-1.46 11-3.8-.69-2.36-4.36-1.09-11 3.8zM143.74 103.68c7.71-.09 11.22-1.31 10.53-3.65-.7-2.36-4.21-1.14-10.53 3.65zM143.75 96.71c7.43-.06 10.79-1.23 10.1-3.52-.67-2.28-4.04-1.11-10.1 3.52zM143.38 89.88c7.29-.04 10.61-1.2 9.95-3.47-.67-2.28-3.99-1.12-9.95 3.47zM143.5 82.96c6.85-.1 9.97-1.18 9.35-3.23-.61-2.05-3.72-.97-9.35 3.23zM143.5 76.07c6.6-.03 9.59-1.07 8.98-3.13-.61-2.06-3.6-1.01-8.98 3.13zM143.52 69.12c6.25-.04 9.09-1.02 8.51-2.97-.58-1.94-3.42-.95-8.51 2.97zM143.08 61.99c6.27 0 9.12-1 8.54-2.98-.6-1.99-3.44-.99-8.54 2.98zM143.1 54.93c5.93 0 8.62-.94 8.06-2.82-.57-1.88-3.26-.94-8.06 2.82z"/>
          <path id="&lt;Path&gt;" class="shp11" d="M142.88 48.32c5.76.13 8.35-.79 7.76-2.75-.57-1.96-3.15-1.05-7.76 2.75zM142.9 41.18c5.38.06 7.81-.79 7.27-2.56-.51-1.78-2.94-.92-7.27 2.56zM142.9 34.19c5.07.15 7.34-.66 6.81-2.44-.52-1.77-2.79-.96-6.81 2.44zM142.93 27.34c4.74.15 6.86-.61 6.37-2.28-.49-1.66-2.62-.9-6.37 2.28zM142.93 20.5c4.45.11 6.45-.59 6-2.12-.45-1.55-2.45-.84-6 2.12z"/>
          <path id="&lt;Path&gt;" class="shp11" d="M141.21 195.68l3.35.56-1.63-193.66-1.72 193.1z"/>
        </g>
        <g id="&lt;Group&gt;">
          <path id="&lt;Path&gt;" class="shp11" d="M93 200.79c-7.3 2.09-14.88 4.24-29.74 4.24-14.9 0-22.48-2.15-29.8-4.24-7.49-2.13-15.24-4.34-30.48-4.34v2.47c14.9 0 22.46 2.16 29.81 4.24 7.49 2.14 15.22 4.35 30.47 4.35 15.21 0 22.94-2.21 30.43-4.35 7.31-2.08 14.87-4.24 29.73-4.24 14.72 0 21.87 2.06 29.45 4.24 7.39 2.14 15.04 4.35 30.14 4.35v-2.48c-14.74 0-21.89-2.06-29.46-4.24-7.4-2.13-15.06-4.34-30.13-4.34-15.21 0-22.94 2.21-30.42 4.34z"/>
        </g>
      </g>
      <g id="&lt;Group&gt;">
        <g id="&lt;Group&gt;">
          <path id="&lt;Compound Path&gt;" class="shp4" d="M187.09 97.57h5.18v31.04h-1.99V99.44l-3.19-.09v-1.78zM205.58 107.86c-2.31 0-4.39.5-6.26 1.51v19.24h-1.99v-22.22h1.99v1.2c1.66-1.03 3.77-1.55 6.34-1.55 1.69 0 3.11.28 4.26.84 2.51 1.16 3.77 3.28 3.77 6.39v15.34h-1.95v-15.25c0-1.6-.45-2.86-1.35-3.8-.91-.93-2.01-1.46-3.31-1.61-.5-.06-1-.09-1.5-.09zM228.23 97.26l-.31 1.73c-.38-.06-.75-.09-1.11-.09-1.3 0-2.41.4-3.32 1.2-.92.8-1.38 2.19-1.38 4.17v2.12h5.55l-.85 1.91h-4.7v20.31h-1.99v-24.34c0-1.48.25-2.75.75-3.81.5-1.07 1.14-1.82 1.91-2.27 1.27-.73 2.57-1.11 3.9-1.11.53 0 1.05.07 1.55.18zM231.96 106.39h1.99l-.09 1.78c1.45-1.45 3.4-2.17 5.85-2.17 1.01 0 2.12.13 3.33.39l-.53 1.87c-.92-.33-1.84-.49-2.77-.49-.93 0-1.87.15-2.82.44-1.98.57-2.97 1.54-2.97 2.93v17.47h-1.99v-22.22z"/>
          <path id="&lt;Compound Path&gt;" fill-rule="evenodd" class="shp4" d="M250.89 129.05c-6.48 0-9.71-2.64-9.71-7.93v-3.68c0-2.93 1.03-4.9 3.1-5.9 1.06-.5 2.14-.75 3.24-.75 3.6 0 6.51.82 8.73 2.48 0-1.69-.51-3.05-1.53-4.08-1.02-1.04-2.89-1.55-5.61-1.55h-.22l.13-1.6c2.4 0 4.17.28 5.32.84a16 16 0 011.65.98c.47.32.84.75 1.1 1.28.27.54.49 1 .67 1.4.17.4.29.94.35 1.62.09 1.03.14 2.11.14 3.23v13.22c-3.08.29-5.53.44-7.36.44zm-7.76-11.48v3.86c0 1.41.34 2.58 1.04 3.5.69.91 1.63 1.52 2.82 1.82 2.66.71 5.74.76 9.26.17v-12.01c-2.45-1.36-5.13-2.13-8.02-2.31h-.4c-1.27 0-2.38.39-3.31 1.18-.93.78-1.39 2.04-1.39 3.79z"/>
          <path id="&lt;Compound Path&gt;" class="shp4" d="M274.52 107.15l-.71 1.68c-1.13-.76-2.52-1.16-4.17-1.17-1.66-.02-3.02.35-4.08 1.09-1.06.73-1.6 1.72-1.6 2.96 0 1.22.51 2.14 1.53 2.78 1.02.63 2.18 1.14 3.46 1.53 1.29.38 2.57.8 3.86 1.26 1.28.46 2.37 1.17 3.26 2.13.88.96 1.33 2.25 1.33 3.88 0 1.62-.66 3.03-1.98 4.21-1.31 1.18-3.23 1.77-5.76 1.77s-4.51-.6-5.96-1.81c-1.45-1.22-2.2-2.71-2.26-4.48h1.9c.18 1.39.85 2.47 2.02 3.26 1.17.78 2.56 1.17 4.17 1.17 1.61 0 2.99-.37 4.14-1.11 1.16-.74 1.73-1.73 1.73-2.99 0-1.26-.43-2.25-1.28-2.99-.86-.74-1.93-1.31-3.2-1.71-1.27-.4-2.54-.81-3.81-1.22a9.82 9.82 0 01-3.37-1.86c-1.15-.98-1.73-2.2-1.73-3.66s.59-2.83 1.75-4.1c1.17-1.27 3.1-1.91 5.79-1.91.92 0 1.79.12 2.62.34.82.22 1.41.43 1.77.64l.58.31zM280.9 97.57h2v8.82h5.8l-.88 1.91h-4.92v14.46c0 2.51 1.09 4.12 3.28 4.83l-.58 1.59c-1.66-.47-2.85-1.22-3.59-2.26-.74-1.03-1.11-2.42-1.11-4.16V97.57zM292.43 106.39h1.99l-.09 1.78c1.45-1.45 3.4-2.17 5.86-2.17 1 0 2.11.13 3.32.39l-.53 1.87c-.92-.33-1.84-.49-2.77-.49-.93 0-1.87.15-2.82.44-1.98.57-2.97 1.54-2.97 2.93v17.47h-1.99v-22.22zM305.77 106.39h2v14.77c0 4.08 2.11 6.12 6.34 6.12 1.89 0 3.4-.5 4.52-1.49 1.12-.99 1.69-2.46 1.69-4.41v-14.99h1.99v22.22h-1.95l.14-2.62c-1.51 2.07-3.64 3.11-6.39 3.11-5.56 0-8.34-2.72-8.34-8.16v-14.55zM339.2 108.97c-1.71-.77-3.23-1.16-4.56-1.16-1.33 0-2.49.17-3.48.51-.99.34-1.84 1.07-2.53 2.18-.7 1.11-1.04 2.5-1.04 4.19v6.43c0 4.13 2.36 6.2 7.09 6.2 1.45 0 3.03-.2 4.75-.62l.44 1.64c-1.89.5-3.61.76-5.14.76-1.54 0-3.05-.24-4.53-.71-3.07-1.01-4.61-3.6-4.61-7.76v-5.68c0-2.1.42-3.85 1.24-5.27 1.42-2.46 3.76-3.68 7.01-3.68 1.95 0 3.93.47 5.94 1.42l-.58 1.55zM342.93 97.57h1.99v8.82h5.81l-.89 1.91h-4.92v14.46c0 2.51 1.1 4.12 3.28 4.83l-.57 1.59c-1.66-.47-2.86-1.22-3.59-2.26-.74-1.03-1.11-2.42-1.11-4.16V97.57zM353.35 106.39h1.99v14.77c0 4.08 2.11 6.12 6.34 6.12 1.89 0 3.4-.5 4.52-1.49 1.13-.99 1.69-2.46 1.69-4.41v-14.99h1.99v22.22h-1.95l.14-2.62c-1.51 2.07-3.64 3.11-6.39 3.11-5.55 0-8.33-2.72-8.33-8.16v-14.55zM374.27 106.39h2l-.09 1.78c1.45-1.45 3.4-2.17 5.85-2.17 1.01 0 2.11.13 3.33.39l-.54 1.87c-.91-.33-1.84-.49-2.77-.49-.92 0-1.87.15-2.81.44-1.98.57-2.97 1.54-2.97 2.93v17.47h-2v-22.22z"/>
          <path id="&lt;Compound Path&gt;" fill-rule="evenodd" class="shp4" d="M400.65 127.06c-2.27 1.39-4.65 2.08-7.13 2.08-5.15 0-7.72-2.16-7.72-6.47v-9.09c0-2.4.75-4.26 2.24-5.59 1.49-1.33 3.46-1.99 5.92-1.99 2.45 0 4.36.65 5.74 1.97 1.37 1.32 2.06 3.14 2.06 5.48v5.32l-13.96.75v3.19c0 1.69.54 2.89 1.64 3.61 1.09.73 2.33 1.09 3.72 1.09 2.13 0 4.36-.63 6.7-1.91l.79 1.56zm-12.85-13.48v3.99l11.97-.62v-3.73c0-1.98-.61-3.39-1.82-4.23-1.21-.84-2.63-1.27-4.24-1.27-1.61 0-3 .48-4.16 1.42-1.17.95-1.75 2.43-1.75 4.44z"/>
          <path id="&lt;Compound Path&gt;" class="shp4" d="M418.16 107.15l-.71 1.68c-1.12-.76-2.51-1.16-4.16-1.17-1.66-.02-3.02.35-4.08 1.09-1.07.73-1.6 1.72-1.6 2.96 0 1.22.51 2.14 1.53 2.78 1.02.63 2.18 1.14 3.46 1.53 1.29.38 2.57.8 3.86 1.26 1.28.46 2.37 1.17 3.25 2.13.89.96 1.34 2.25 1.34 3.88 0 1.62-.66 3.03-1.98 4.21-1.31 1.18-3.23 1.77-5.76 1.77s-4.52-.6-5.96-1.81c-1.45-1.22-2.21-2.71-2.26-4.48h1.9c.18 1.39.85 2.47 2.02 3.26 1.17.78 2.56 1.17 4.17 1.17 1.61 0 2.99-.37 4.14-1.11 1.16-.74 1.73-1.73 1.73-2.99 0-1.26-.43-2.25-1.28-2.99-.86-.74-1.93-1.31-3.2-1.71-1.27-.4-2.54-.81-3.81-1.22a9.82 9.82 0 01-3.37-1.86c-1.15-.98-1.73-2.2-1.73-3.66s.59-2.83 1.75-4.1c1.17-1.27 3.1-1.91 5.79-1.91.91 0 1.79.12 2.62.34.82.22 1.41.43 1.77.64l.57.31zM424.86 128.7l-.31-.09c-.5-.3-.75-.67-.73-1.13.01-.46.13-.79.35-1 .22-.21.42-.31.6-.31s.36.01.53.02c.18.02.4.16.67.44.26.29.4.59.4.91 0 1.63-.95 3.22-2.84 4.79l-1.42-1.02c.65-.35 1.2-.75 1.66-1.19.46-.45.82-.92 1.09-1.42zM442.95 97.57h1.99v8.82h5.81l-.89 1.91h-4.92v14.46c0 2.51 1.1 4.12 3.28 4.83l-.57 1.59c-1.66-.47-2.86-1.22-3.6-2.26-.73-1.03-1.1-2.42-1.1-4.16V97.57z"/>
          <path id="&lt;Compound Path&gt;" fill-rule="evenodd" class="shp4" d="M453.86 120.45v-5.85c0-2.81.71-4.96 2.14-6.45 1.44-1.5 3.47-2.24 6.1-2.24 2.63 0 4.67.77 6.12 2.32 1.45 1.56 2.17 3.68 2.17 6.37v5.85c0 2.48-.68 4.54-2.04 6.16-1.36 1.63-3.41 2.44-6.16 2.44s-4.83-.82-6.23-2.46c-1.41-1.64-2.1-3.69-2.1-6.14zm1.99-5.9v6.21c0 1.89.55 3.45 1.66 4.68 1.11 1.22 2.67 1.84 4.68 1.84s3.54-.61 4.61-1.82c1.06-1.21 1.59-2.78 1.59-4.7v-6.21c0-2.3-.56-4.02-1.7-5.14s-2.65-1.69-4.55-1.69c-1.89 0-3.41.56-4.56 1.67-1.15 1.11-1.73 2.83-1.73 5.16zM475 106.39h2l-.18 2.44c.8-.91 1.77-1.61 2.93-2.08 1.15-.47 2.27-.71 3.37-.71 2.8 0 4.94.81 6.4 2.42 1.46 1.61 2.19 3.68 2.19 6.23v6.11c0 2.69-.75 4.76-2.28 6.19-1.52 1.43-3.63 2.15-6.31 2.15-2.69 0-4.73-.95-6.12-2.84v11.62l-2-.76v-30.77zm14.72 14.86v-6.74c0-1.63-.35-2.97-1.06-4.01-.71-1.05-1.52-1.75-2.42-2.11-.9-.35-2-.53-3.3-.53-1.3 0-2.56.43-3.79 1.28-1.23.86-1.95 2.24-2.15 4.13v8.11c0 1.98.58 3.47 1.75 4.46 1.16.99 2.66 1.48 4.5 1.48 1.83 0 3.37-.51 4.61-1.53 1.24-1.02 1.86-2.53 1.86-4.54zM495.35 120.45v-5.85c0-2.81.72-4.96 2.15-6.45 1.44-1.5 3.47-2.24 6.1-2.24 2.63 0 4.67.77 6.12 2.32 1.44 1.56 2.17 3.68 2.17 6.37v5.85c0 2.48-.68 4.54-2.04 6.16-1.36 1.63-3.41 2.44-6.16 2.44s-4.83-.82-6.23-2.46c-1.41-1.64-2.11-3.69-2.11-6.14zm2-5.9v6.21c0 1.89.55 3.45 1.66 4.68 1.11 1.22 2.67 1.84 4.68 1.84s3.54-.61 4.61-1.82c1.06-1.21 1.59-2.78 1.59-4.7v-6.21c0-2.3-.57-4.02-1.7-5.14-1.14-1.12-2.65-1.69-4.55-1.69-1.89 0-3.41.56-4.56 1.67-1.16 1.11-1.73 2.83-1.73 5.16zM529.75 109.05l-.13-2.66h2v25.06c0 1.77-.37 3.16-1.11 4.16-.74 1.01-1.95 1.78-3.63 2.31l-.54-1.55c2.19-.83 3.28-2.49 3.28-4.97v-5.67c-1.39 2.27-3.46 3.41-6.23 3.41-2.76 0-4.87-.71-6.32-2.13-1.44-1.42-2.17-3.49-2.17-6.21v-6.6c0-2.6.77-4.62 2.31-6.05 1.54-1.44 3.67-2.15 6.4-2.15 2.74 0 4.78 1.02 6.14 3.05zm-12.85 5.37v6.78c0 1.95.55 3.45 1.66 4.5 1.11 1.05 2.58 1.58 4.41 1.58s3.4-.53 4.7-1.58c1.3-1.05 1.95-2.57 1.95-4.58v-8.21c-.17-1.74-.87-3.03-2.08-3.86-1.21-.82-2.65-1.24-4.3-1.24-1.66 0-3.13.51-4.41 1.53-1.29 1.02-1.93 2.72-1.93 5.08z"/>
          <path id="&lt;Compound Path&gt;" class="shp4" d="M534.86 106.39h1.99l-.09 1.78c1.45-1.45 3.4-2.17 5.85-2.17 1.01 0 2.12.13 3.33.39l-.53 1.87c-.92-.33-1.84-.49-2.78-.49-.93 0-1.86.15-2.81.44-1.98.57-2.97 1.54-2.97 2.93v17.47h-1.99v-22.22z"/>
          <path id="&lt;Compound Path&gt;" fill-rule="evenodd" class="shp4" d="M553.79 129.05c-6.48 0-9.71-2.64-9.71-7.93v-3.68c0-2.93 1.03-4.9 3.1-5.9 1.07-.5 2.14-.75 3.24-.75 3.6 0 6.51.82 8.73 2.48 0-1.69-.51-3.05-1.53-4.08-1.02-1.04-2.89-1.55-5.61-1.55h-.22l.14-1.6c2.39 0 4.16.28 5.32.84.62.33 1.16.65 1.64.98.47.32.84.75 1.1 1.28.27.54.49 1 .67 1.4.18.4.29.94.35 1.62.09 1.03.13 2.11.13 3.23v13.22c-3.07.29-5.52.44-7.35.44zm-7.76-11.48v3.86c0 1.41.35 2.58 1.04 3.5.7.91 1.63 1.52 2.82 1.82 2.66.71 5.74.76 9.26.17v-12.01c-2.45-1.36-5.13-2.13-8.02-2.31h-.4c-1.27 0-2.37.39-3.3 1.18-.94.78-1.4 2.04-1.4 3.79zM564.96 106.39h1.99l-.18 2.44c.8-.91 1.78-1.61 2.93-2.08 1.16-.47 2.28-.71 3.37-.71 2.81 0 4.95.81 6.41 2.42 1.46 1.61 2.19 3.68 2.19 6.23v6.11c0 2.69-.76 4.76-2.28 6.19-1.52 1.43-3.63 2.15-6.32 2.15-2.69 0-4.73-.95-6.12-2.84v11.62l-1.99-.76v-30.77zm14.72 14.86v-6.74c0-1.63-.36-2.97-1.07-4.01-.71-1.05-1.51-1.75-2.41-2.11-.91-.35-2-.53-3.31-.53-1.3 0-2.56.43-3.79 1.28-1.22.86-1.94 2.24-2.15 4.13v8.11c0 1.98.59 3.47 1.75 4.46 1.17.99 2.67 1.48 4.5 1.48 1.84 0 3.37-.51 4.62-1.53 1.23-1.02 1.86-2.53 1.86-4.54z"/>
          <path id="&lt;Compound Path&gt;" class="shp4" d="M588.05 109.37v19.24h-1.99V97.57h1.99v10.02c1.66-1.03 3.77-1.55 6.34-1.55 1.69 0 3.11.28 4.26.84 2.51 1.16 3.77 3.28 3.77 6.39v15.34h-1.95v-15.25c0-1.63-.44-2.9-1.33-3.82-1.07-1.15-2.7-1.73-4.92-1.73-2.22 0-4.27.52-6.17 1.56zM608.92 99.19c-.26-.25-.38-.54-.38-.86 0-.33.12-.61.38-.84.25-.24.53-.36.86-.36.33 0 .61.12.84.36.24.23.36.51.36.84 0 .32-.12.61-.36.86-.23.25-.51.38-.84.38-.33 0-.61-.13-.86-.38zm-.16 7.2h2v22.22h-2v-22.22z"/>
          <path id="&lt;Compound Path&gt;" fill-rule="evenodd" class="shp4" d="M630.93 127.06c-2.28 1.39-4.66 2.08-7.14 2.08-5.14 0-7.72-2.16-7.72-6.47v-9.09c0-2.4.75-4.26 2.25-5.59 1.49-1.33 3.46-1.99 5.91-1.99 2.46 0 4.37.65 5.75 1.97 1.37 1.32 2.06 3.14 2.06 5.48v5.32l-13.97.75v3.19c0 1.69.55 2.89 1.64 3.61 1.09.73 2.34 1.09 3.73 1.09 2.12 0 4.36-.63 6.69-1.91l.8 1.56zm-12.86-13.48v3.99l11.97-.62v-3.73c0-1.98-.6-3.39-1.82-4.23-1.21-.84-2.62-1.27-4.23-1.27-1.61 0-3 .48-4.17 1.42-1.16.95-1.75 2.43-1.75 4.44zM202.21 175.83c-2.28 1.38-4.66 2.08-7.14 2.08-5.15 0-7.72-2.16-7.72-6.47v-9.09c0-2.4.75-4.26 2.24-5.59 1.49-1.33 3.47-1.99 5.92-1.99 2.45 0 4.37.65 5.74 1.97 1.38 1.31 2.06 3.14 2.06 5.47v5.33l-13.96.75v3.19c0 1.69.55 2.89 1.64 3.61 1.09.73 2.33 1.09 3.72 1.09 2.13 0 4.36-.64 6.7-1.91l.8 1.56zm-12.86-13.48v3.99l11.97-.62v-3.73c0-1.98-.61-3.39-1.82-4.23-1.21-.84-2.62-1.27-4.23-1.27-1.61 0-3 .48-4.17 1.42-1.17.95-1.75 2.43-1.75 4.44z"/>
          <path id="&lt;Compound Path&gt;" class="shp4" d="M206.99 146.34h2v8.82h5.81l-.89 1.91h-4.92v14.46c0 2.51 1.09 4.12 3.28 4.83l-.58 1.59c-1.65-.47-2.85-1.22-3.59-2.26-.74-1.03-1.11-2.42-1.11-4.16v-25.19zM230.09 146.34h2v8.82h5.81l-.89 1.91h-4.92v14.46c0 2.51 1.09 4.12 3.28 4.83l-.58 1.59c-1.65-.47-2.85-1.22-3.59-2.26-.74-1.03-1.11-2.42-1.11-4.16v-25.19zM241.62 155.16h1.99l-.08 1.78c1.44-1.45 3.39-2.17 5.85-2.17 1 0 2.11.13 3.32.39l-.53 1.87c-.92-.33-1.84-.49-2.77-.49-.93 0-1.87.15-2.82.44-1.98.56-2.97 1.54-2.97 2.93v17.47h-1.99v-22.22z"/>
          <path id="&lt;Compound Path&gt;" fill-rule="evenodd" class="shp4" d="M260.55 177.82c-6.47 0-9.71-2.64-9.71-7.94v-3.67c0-2.93 1.03-4.9 3.1-5.9 1.07-.51 2.15-.76 3.24-.76 3.61 0 6.52.83 8.74 2.49 0-1.69-.51-3.05-1.53-4.08-1.02-1.04-2.89-1.55-5.61-1.55h-.22l.13-1.6c2.39 0 4.17.28 5.32.84.62.33 1.16.65 1.64.98.47.32.84.75 1.11 1.28.26.54.49 1 .66 1.4.18.4.3.94.36 1.62.09 1.03.13 2.11.13 3.23v13.22c-3.08.29-5.53.44-7.36.44zm-7.76-11.48v3.86c0 1.41.35 2.58 1.04 3.5.7.91 1.64 1.52 2.82 1.82 2.66.7 5.75.76 9.27.17v-12.01c-2.46-1.36-5.13-2.13-8.03-2.31h-.4c-1.27 0-2.37.39-3.3 1.18-.93.78-1.4 2.04-1.4 3.79z"/>
          <path id="&lt;Compound Path&gt;" class="shp4" d="M280.59 156.63c-2.31 0-4.39.5-6.25 1.5v19.25h-2v-22.22h2v1.2c1.65-1.03 3.77-1.55 6.34-1.55 1.68 0 3.1.28 4.25.84 2.52 1.15 3.77 3.28 3.77 6.39v15.34h-1.95v-15.25c0-1.6-.45-2.86-1.35-3.8-.9-.93-2-1.46-3.3-1.61-.51-.06-1.01-.09-1.51-.09zM306.35 155.92l-.71 1.68c-1.13-.76-2.51-1.16-4.17-1.17-1.65-.02-3.01.35-4.08 1.09-1.06.73-1.59 1.72-1.59 2.96 0 1.22.51 2.14 1.53 2.78 1.01.63 2.17 1.14 3.45 1.53 1.29.38 2.57.8 3.86 1.26a8.05 8.05 0 013.26 2.13c.89.96 1.33 2.25 1.33 3.88 0 1.62-.66 3.03-1.97 4.21-1.32 1.18-3.24 1.77-5.77 1.77-2.52 0-4.51-.6-5.96-1.82-1.45-1.21-2.2-2.7-2.26-4.47h1.9c.18 1.39.85 2.47 2.02 3.26 1.17.78 2.56 1.17 4.17 1.17 1.61 0 2.99-.37 4.14-1.11 1.16-.74 1.74-1.73 1.74-2.99 0-1.26-.43-2.25-1.29-2.99-.86-.74-1.92-1.31-3.19-1.71-1.27-.4-2.55-.81-3.82-1.22a9.683 9.683 0 01-3.36-1.86c-1.16-.98-1.74-2.2-1.74-3.66s.59-2.83 1.76-4.1c1.16-1.27 3.09-1.91 5.78-1.91.92 0 1.79.11 2.62.33.83.23 1.42.44 1.77.65l.58.31z"/>
          <path id="&lt;Compound Path&gt;" fill-rule="evenodd" class="shp4" d="M314.24 155.16h2l-.18 2.44c.8-.91 1.77-1.61 2.92-2.08 1.16-.47 2.28-.71 3.37-.71 2.81 0 4.95.81 6.41 2.42 1.46 1.61 2.19 3.68 2.19 6.23v6.11c0 2.69-.75 4.76-2.28 6.19-1.52 1.43-3.63 2.15-6.32 2.15-2.69 0-4.73-.95-6.11-2.84v11.62l-2-.76v-30.77zm14.72 14.86v-6.74c0-1.63-.35-2.97-1.06-4.01-.71-1.05-1.52-1.75-2.42-2.11-.9-.36-2-.53-3.3-.53-1.3 0-2.57.43-3.79 1.28-1.23.86-1.95 2.24-2.15 4.13v8.11c0 1.98.58 3.47 1.75 4.46 1.16.99 2.66 1.48 4.5 1.48 1.83 0 3.37-.51 4.61-1.53 1.24-1.02 1.86-2.53 1.86-4.54zM334.59 169.22v-5.85c0-2.81.72-4.96 2.15-6.45 1.44-1.5 3.47-2.24 6.1-2.24 2.63 0 4.67.77 6.12 2.32 1.44 1.56 2.17 3.68 2.17 6.37v5.85c0 2.48-.68 4.54-2.04 6.16-1.36 1.63-3.41 2.44-6.16 2.44s-4.83-.82-6.23-2.46c-1.41-1.64-2.11-3.69-2.11-6.14zm2-5.9v6.21c0 1.89.55 3.45 1.66 4.68 1.11 1.22 2.66 1.84 4.68 1.84 2 0 3.54-.61 4.61-1.82 1.06-1.21 1.59-2.78 1.59-4.7v-6.21c0-2.3-.57-4.02-1.7-5.14-1.14-1.12-2.66-1.69-4.55-1.69-1.89 0-3.41.56-4.56 1.67-1.16 1.11-1.73 2.83-1.73 5.16z"/>
          <path id="&lt;Compound Path&gt;" class="shp4" d="M355.38 155.16h2l-.09 1.78c1.45-1.45 3.4-2.17 5.85-2.17 1 0 2.11.13 3.33.39l-.54 1.87c-.91-.33-1.84-.49-2.77-.49-.93 0-1.87.15-2.81.44-1.98.56-2.97 1.54-2.97 2.93v17.47h-2v-22.22zM368.64 146.34h2v8.82h5.81l-.89 1.91h-4.92v14.46c0 2.51 1.09 4.12 3.28 4.83l-.58 1.59c-1.66-.47-2.85-1.22-3.59-2.26-.74-1.03-1.11-2.42-1.11-4.16v-25.19zM392.14 155.92l-.71 1.68c-1.13-.76-2.51-1.16-4.17-1.17-1.65-.02-3.01.35-4.08 1.09-1.06.73-1.59 1.72-1.59 2.96 0 1.22.51 2.14 1.53 2.78 1.02.63 2.17 1.14 3.45 1.53 1.29.38 2.57.8 3.86 1.26a8.05 8.05 0 013.26 2.13c.89.96 1.33 2.25 1.33 3.88 0 1.62-.66 3.03-1.97 4.21-1.32 1.18-3.24 1.77-5.76 1.77-2.53 0-4.52-.6-5.97-1.82-1.45-1.21-2.2-2.7-2.26-4.47h1.9c.18 1.39.86 2.47 2.02 3.26 1.17.78 2.56 1.17 4.17 1.17 1.61 0 2.99-.37 4.15-1.11 1.15-.74 1.73-1.73 1.73-2.99 0-1.26-.43-2.25-1.29-2.99-.86-.74-1.92-1.31-3.19-1.71-1.27-.4-2.55-.81-3.82-1.22a9.683 9.683 0 01-3.36-1.86c-1.16-.98-1.73-2.2-1.73-3.66s.58-2.83 1.75-4.1c1.16-1.27 3.09-1.91 5.78-1.91.92 0 1.79.11 2.62.33.83.23 1.42.44 1.77.65l.58.31zM410.85 146.34h1.99v8.82h5.81l-.88 1.91h-4.93v14.46c0 2.51 1.1 4.12 3.29 4.83l-.58 1.59c-1.66-.47-2.85-1.22-3.59-2.26-.74-1.03-1.11-2.42-1.11-4.16v-25.19z"/>
          <path id="&lt;Compound Path&gt;" fill-rule="evenodd" class="shp4" d="M436.08 175.83c-2.28 1.38-4.66 2.08-7.14 2.08-5.14 0-7.72-2.16-7.72-6.47v-9.09c0-2.4.75-4.26 2.24-5.59 1.5-1.33 3.47-1.99 5.92-1.99 2.46 0 4.37.65 5.75 1.97 1.37 1.31 2.05 3.14 2.05 5.47v5.33l-13.96.75v3.19c0 1.69.55 2.89 1.64 3.61 1.09.73 2.34 1.09 3.73 1.09 2.12 0 4.36-.64 6.69-1.91l.8 1.56zm-12.86-13.48v3.99l11.97-.62v-3.73c0-1.98-.6-3.39-1.82-4.23-1.21-.84-2.62-1.27-4.23-1.27-1.61 0-3 .48-4.17 1.42-1.17.95-1.75 2.43-1.75 4.44z"/>
          <path id="&lt;Compound Path&gt;" class="shp4" d="M441.62 155.16h1.99l-.09 1.78c1.45-1.45 3.4-2.17 5.86-2.17 1 0 2.11.13 3.32.39l-.53 1.87c-.92-.33-1.84-.49-2.77-.49-.93 0-1.87.15-2.82.44-1.98.56-2.97 1.54-2.97 2.93v17.47h-1.99v-22.22zM454.92 155.16h1.99l-.09 1.78c1.45-1.45 3.4-2.17 5.86-2.17 1 0 2.11.13 3.32.39l-.53 1.87c-.92-.33-1.84-.49-2.77-.49-.93 0-1.87.15-2.82.44-1.98.56-2.97 1.54-2.97 2.93v17.47h-1.99v-22.22z"/>
          <path id="&lt;Compound Path&gt;" fill-rule="evenodd" class="shp4" d="M481.3 175.83c-2.28 1.38-4.66 2.08-7.14 2.08-5.14 0-7.71-2.16-7.71-6.47v-9.09c0-2.4.74-4.26 2.23-5.59 1.5-1.33 3.47-1.99 5.92-1.99 2.45 0 4.37.65 5.74 1.97 1.38 1.31 2.07 3.14 2.07 5.47v5.33l-13.97.75v3.19c0 1.69.55 2.89 1.64 3.61 1.1.73 2.33 1.09 3.72 1.09 2.13 0 4.36-.64 6.7-1.91l.8 1.56zm-12.86-13.48v3.99l11.97-.62v-3.73c0-1.98-.61-3.39-1.82-4.23-1.21-.84-2.62-1.27-4.23-1.27-1.61 0-3 .48-4.17 1.42-1.17.95-1.75 2.43-1.75 4.44z"/>
          <path id="&lt;Compound Path&gt;" class="shp4" d="M498.81 155.92l-.71 1.68c-1.12-.76-2.51-1.16-4.17-1.17-1.65-.02-3.01.35-4.08 1.09-1.06.73-1.59 1.72-1.59 2.96 0 1.22.51 2.14 1.53 2.78 1.01.63 2.17 1.14 3.46 1.53 1.28.38 2.57.8 3.85 1.26a8.05 8.05 0 013.26 2.13c.89.96 1.33 2.25 1.33 3.88 0 1.62-.66 3.03-1.97 4.21-1.32 1.18-3.24 1.77-5.77 1.77-2.52 0-4.51-.6-5.96-1.82-1.45-1.21-2.2-2.7-2.26-4.47h1.91c.17 1.39.84 2.47 2.01 3.26 1.17.78 2.56 1.17 4.17 1.17 1.61 0 2.99-.37 4.14-1.11 1.16-.74 1.74-1.73 1.74-2.99 0-1.26-.43-2.25-1.29-2.99-.86-.74-1.92-1.31-3.19-1.71-1.27-.4-2.54-.81-3.81-1.22a9.639 9.639 0 01-3.37-1.86c-1.16-.98-1.74-2.2-1.74-3.66s.59-2.83 1.76-4.1c1.17-1.27 3.09-1.91 5.78-1.91.92 0 1.79.11 2.62.33.83.23 1.42.44 1.77.65l.58.31zM505.2 146.34h1.99v8.82H513l-.89 1.91h-4.92v14.46c0 2.51 1.09 4.12 3.28 4.83l-.58 1.59c-1.65-.47-2.85-1.22-3.59-2.26-.74-1.03-1.1-2.42-1.1-4.16v-25.19zM516.72 155.16h1.99l-.08 1.78c1.44-1.45 3.4-2.17 5.85-2.17 1 0 2.11.13 3.32.39l-.53 1.87c-.91-.33-1.84-.49-2.77-.49-.93 0-1.87.15-2.81.44-1.98.56-2.98 1.54-2.98 2.93v17.47h-1.99v-22.22z"/>
          <path id="&lt;Compound Path&gt;" fill-rule="evenodd" class="shp4" d="M543.1 175.83c-2.28 1.38-4.65 2.08-7.14 2.08-5.14 0-7.71-2.16-7.71-6.47v-9.09c0-2.4.74-4.26 2.24-5.59 1.49-1.33 3.46-1.99 5.92-1.99 2.45 0 4.36.65 5.74 1.97 1.37 1.31 2.06 3.14 2.06 5.47v5.33l-13.97.75v3.19c0 1.69.55 2.89 1.64 3.61 1.1.73 2.34 1.09 3.73 1.09 2.12 0 4.36-.64 6.69-1.91l.8 1.56zm-12.86-13.48v3.99l11.97-.62v-3.73c0-1.98-.6-3.39-1.82-4.23-1.21-.84-2.62-1.27-4.23-1.27-1.61 0-3 .48-4.16 1.42-1.17.95-1.76 2.43-1.76 4.44z"/>
          <path id="&lt;Compound Path&gt;" class="shp4" d="M560.61 155.92l-.71 1.68c-1.12-.76-2.51-1.16-4.17-1.17-1.65-.02-3.01.35-4.07 1.09-1.07.73-1.6 1.72-1.6 2.96 0 1.22.51 2.14 1.53 2.78 1.02.63 2.17 1.14 3.46 1.53 1.28.38 2.57.8 3.86 1.26 1.28.46 2.37 1.17 3.25 2.13.89.96 1.33 2.25 1.33 3.88 0 1.62-.65 3.03-1.97 4.21-1.32 1.18-3.23 1.77-5.76 1.77s-4.52-.6-5.97-1.82c-1.45-1.21-2.2-2.7-2.26-4.47h1.91c.18 1.39.85 2.47 2.02 3.26 1.17.78 2.55 1.17 4.17 1.17 1.6 0 2.99-.37 4.14-1.11 1.15-.74 1.73-1.73 1.73-2.99 0-1.26-.43-2.25-1.29-2.99-.85-.74-1.92-1.31-3.19-1.71-1.27-.4-2.54-.81-3.81-1.22a9.728 9.728 0 01-3.37-1.86c-1.16-.98-1.73-2.2-1.73-3.66s.58-2.83 1.75-4.1c1.17-1.27 3.1-1.91 5.78-1.91.92 0 1.79.11 2.62.33.83.23 1.42.44 1.78.65l.57.31z"/>
        </g>
      </g>
      <g id="&lt;Group&gt;">
        <path id="&lt;Compound Path&gt;" fill-rule="evenodd" class="shp4" d="M229.06 29.33c-.17 2.55-.33 5.9-.33 11.89v22.37c0 7.7-1.56 14.01-6.06 18.02-4.43 3.77-10.41 4.92-16.31 4.92-5.25 0-10.82-1.07-14.42-3.11l2.46-9.43c2.54 1.48 6.96 3.03 11.63 3.03 5.9 0 10.41-3.19 10.41-10.57v-2.62h-.17c-2.37 3.36-6.22 5.25-10.81 5.25-9.92 0-16.96-8.03-16.96-19.59 0-12.86 8.35-21.06 18.19-21.06 5.49 0 8.93 2.38 10.98 5.66h.16l.41-4.76h10.82zm-12.79 16.31c0-.82-.08-1.64-.24-2.29-.9-3.28-3.28-5.49-6.72-5.49-4.51 0-8.2 4.09-8.2 11.39 0 5.98 2.96 10.65 8.2 10.65 3.19 0 5.73-2.13 6.55-5.08.33-.9.41-2.21.41-3.28v-5.9zM278.3 48.92c0 14.67-10.4 21.38-21.13 21.38-11.72 0-20.74-7.7-20.74-20.64 0-12.95 8.53-21.23 21.39-21.23 12.29 0 20.48 8.44 20.48 20.49zm-29 .41c0 6.88 2.87 12.04 8.19 12.04 4.84 0 7.95-4.83 7.95-12.04 0-5.98-2.29-12.05-7.95-12.05-5.98 0-8.19 6.15-8.19 12.05z"/>
        <path id="&lt;Compound Path&gt;" class="shp4" d="M323.78 56.54c0 5.24.17 9.5.33 12.86H313.3l-.58-5.65h-.24c-1.56 2.46-5.33 6.55-12.54 6.55-8.11 0-14.1-5.08-14.1-17.45V29.33h12.54v21.55c0 5.82 1.89 9.35 6.23 9.35 3.44 0 5.41-2.38 6.23-4.35.33-.73.41-1.72.41-2.7V29.33h12.53v27.21zM343.04 29.33l5.41 18.61c.98 3.35 1.72 6.55 2.29 9.75h.25c.65-3.28 1.31-6.31 2.21-9.75l5.16-18.61h13.12L356.56 69.4h-12.45l-14.59-40.07h13.52z"/>
        <path id="&lt;Compound Path&gt;" class="shp0" d="M370.34 61.16c0-5.5 3.77-9.47 9.16-9.47 5.39 0 9.06 3.87 9.06 9.47 0 5.39-3.67 9.36-9.16 9.36-5.29 0-9.06-3.97-9.06-9.36z"/>
        <path id="&lt;Compound Path&gt;" class="shp4" d="M398.36 39.5c0-3.61-.17-6.31-.33-9.43h3.6l.33 7.13h.17c2.12-4.42 7.04-8.03 13.51-8.03 3.77 0 13.69 1.89 13.69 16.63v23.6h-3.85V46.13c0-7.13-2.79-13.6-10.9-13.6-5.57 0-10.24 3.93-11.8 9.01-.33.99-.57 2.3-.57 3.53V69.4h-3.85V39.5zM469.4 67.68c-1.72.9-5.82 2.54-11.47 2.54-11.39 0-18.93-8.19-18.93-20.07 0-12.46 8.52-20.98 20.32-20.98 4.84 0 8.77 1.39 10.32 2.46l-1.39 3.2c-1.96-1.07-5-2.3-9.34-2.3-10.57 0-15.98 8.11-15.98 17.37 0 10.24 6.48 16.96 15.57 16.96 4.67 0 7.7-1.31 9.83-2.21l1.07 3.03z"/>
      </g>
    </g>
  </g>
</svg>
